<?xml version="1.0" encoding="utf-8"?>
<!-- Generator: Adobe Illustrator 22.0.1, SVG Export Plug-In . SVG Version: 6.00 Build 0)  -->
<svg version="1.1"
	 id="svg8" inkscape:version="0.92.1 r15371" sodipodi:docname="authority.svg" xmlns:cc="http://creativecommons.org/ns#" xmlns:dc="http://purl.org/dc/elements/1.1/" xmlns:inkscape="http://www.inkscape.org/namespaces/inkscape" xmlns:rdf="http://www.w3.org/1999/02/22-rdf-syntax-ns#" xmlns:sodipodi="http://sodipodi.sourceforge.net/DTD/sodipodi-0.dtd" xmlns:svg="http://www.w3.org/2000/svg"
	 xmlns="http://www.w3.org/2000/svg" xmlns:xlink="http://www.w3.org/1999/xlink" x="0px" y="0px" viewBox="0 0 200 200"
	 style="enable-background:new 0 0 200 200;" xml:space="preserve">
<style type="text/css">
	.st0{fill:#222222;}
	.st1{fill:#9C27B0;}
	.st2{fill:#EEEEEE;}
	.st3{enable-background:new    ;}
	.st4{fill:#3F51B5;}
	.st5{fill:#FFFFFF;}
	.st6{font-family:'Quadriga';}
	.st7{font-size:29.2px;}
	.st8{font-family:'Montserrat-Regular';}
	.st9{font-size:30.6667px;}
</style>
<defs>
	
	
		<inkscape:path-effect  bendpath1="m -199.08406,108.42369 h 7.0057" bendpath2="m -192.07836,108.42369 v 6.75242" bendpath3="m -199.08406,115.17611 h 7.0057" bendpath4="m -199.08406,108.42369 v 6.75242" effect="envelope" id="path-effect4658" is_visible="true" xx="true" yy="true">
		</inkscape:path-effect>
	
		<inkscape:path-effect  bendpath="m -192.00142,114.60623 c 2.12577,-0.53066 4.48261,0.85111 7.0057,0" bendpath-nodetypes="cc" effect="bend_path" id="path-effect4656" is_visible="true" prop_scale="1" scale_y_rel="false" vertical="false">
		</inkscape:path-effect>
	<inkscape:path-effect  effect="bounding_box" id="path-effect4654" is_visible="true" linkedpath="" visualbounds="false">
		</inkscape:path-effect>
</defs>
<sodipodi:namedview  bordercolor="#666666" borderopacity="1.0" fit-margin-bottom="0" fit-margin-left="0" fit-margin-right="0" fit-margin-top="0" id="base" inkscape:current-layer="layer1" inkscape:cx="616.35575" inkscape:cy="150.46772" inkscape:document-units="px" inkscape:object-nodes="true" inkscape:pageopacity="0.0" inkscape:pageshadow="2" inkscape:snap-page="true" inkscape:window-height="1016" inkscape:window-maximized="1" inkscape:window-width="1920" inkscape:window-x="0" inkscape:window-y="27" inkscape:zoom="0.5" pagecolor="#ffffff" showgrid="false" showguides="false" units="px">
	</sodipodi:namedview>
<g id="g5375" transform="matrix(2,0,0,2,298.8262,161.81845)">
	<path id="rect5363" class="st0" d="M608.1,45.1h85c4.1,0,7.5,3.4,7.5,7.5v85c0,4.1-3.4,7.5-7.5,7.5h-85c-4.1,0-7.5-3.4-7.5-7.5v-85
		C600.6,48.4,603.9,45.1,608.1,45.1z"/>
	<path id="rect5365" class="st1" d="M610.6,50.1h80c2.8,0,5,2.2,5,5v80c0,2.8-2.2,5-5,5h-80c-2.8,0-5-2.2-5-5v-80
		C605.6,52.3,607.8,50.1,610.6,50.1z"/>
	<path id="text5407" inkscape:connector-curvature="0" class="st0" d="M641.4,58.1c-0.2,0-0.4,0.2-0.5,0.4l0,0
		c-2,0.3-3.9,1.5-5.6,4.3c-1.8,2.9-3.2,7.1-4.2,12.4c-4.9-1.7-9.2-2.6-12.6-2.6c-3.6,0.1-6.1,1-7.3,3l0,0c-0.4,0.7-0.6,1.5-0.6,2.4
		c0,1.6,0.6,3.4,1.7,5.4c1.6,3,4.6,6.3,8.5,9.7c-4,3.5-6.9,6.8-8.6,9.8l0,0c-1,2-1.6,3.7-1.6,5.3c0,0.9,0.2,1.7,0.6,2.4l0,0
		c1.1,2,3.6,2.9,7.1,3l0,0c3.5,0.1,7.8-0.9,12.7-2.6c1,5.1,2.4,9.3,4.1,12.2l0,0c1.9,3.1,4,4.8,6.3,4.8s4.3-1.7,6.2-4.8l0,0
		c1.8-3,3.1-7.1,4.1-12.2c5,1.7,9.3,2.7,12.8,2.6c3.6-0.1,6-1,7.1-3l0,0c0.4-0.7,0.6-1.5,0.6-2.5c0-1.5-0.6-3.3-1.6-5.2l0,0
		c-1.7-3-4.7-6.3-8.7-9.7c3.9-3.4,6.9-6.7,8.6-9.7l0,0c1.1-2,1.7-3.7,1.7-5.3c0-0.9-0.2-1.7-0.6-2.5c-1.1-2-3.7-2.9-7.3-3
		c-3.4-0.1-7.7,0.9-12.6,2.6c-1-5.2-2.4-9.4-4.2-12.4C645.7,59.8,643.7,58.1,641.4,58.1C641.5,58.1,641.4,58.1,641.4,58.1
		L641.4,58.1z M641.5,61.7c0.6,0,1.2,0.3,1.8,0.9c0.7,0.6,1.4,1.6,2.1,2.9c1.3,2.5,2.4,6.2,3.2,10.8c-2.4,0.9-4.7,1.9-7,3.1
		c-2.4-1.2-4.8-2.2-7.2-3.1c0.8-4.7,1.9-8.4,3.2-10.8c0.7-1.3,1.4-2.3,2.1-2.9C640.3,61.9,640.9,61.7,641.5,61.7L641.5,61.7z
		 M618.6,75.8c0.3,0,0.7,0,1.1,0c2.8,0.1,6.5,1.1,10.8,2.7c-0.4,2.5-0.7,5.1-0.8,7.7c-2.2,1.5-4.3,3-6.2,4.6c-3.5-2.9-6.2-5.6-7.7-8
		l0,0c-0.8-1.3-1.3-2.4-1.5-3.3s-0.1-1.6,0.2-2.1l0,0c0.3-0.5,0.8-0.9,1.7-1.2C616.7,75.9,617.6,75.8,618.6,75.8L618.6,75.8z
		 M664.3,75.8c1,0,1.9,0.1,2.6,0.3c0.9,0.3,1.4,0.7,1.7,1.2s0.4,1.2,0.2,2.1s-0.7,2-1.6,3.3l0,0c-1.5,2.4-4.2,5.2-7.8,8.1
		c-2-1.6-4-3.1-6.2-4.6c-0.2-2.6-0.5-5.2-0.9-7.7c4.3-1.6,8-2.5,10.9-2.7l0,0C663.6,75.8,664,75.8,664.3,75.8L664.3,75.8z
		 M649.1,79.8c0.2,1.3,0.3,2.7,0.4,4.1c-0.7-0.4-1.3-0.8-2-1.2l0,0c-0.7-0.4-1.4-0.8-2.2-1.2C646.6,80.8,647.8,80.3,649.1,79.8
		L649.1,79.8z M633.8,79.8c1.2,0.5,2.5,1.1,3.7,1.6c-0.7,0.4-1.4,0.8-2.1,1.2l0,0c-0.7,0.4-1.4,0.8-2,1.2
		C633.5,82.5,633.6,81.1,633.8,79.8L633.8,79.8z M641.4,83.3c1.4,0.8,2.9,1.5,4.3,2.3c1.4,0.8,2.8,1.6,4.1,2.5
		c0.1,1.6,0.1,3.2,0.1,4.9c0,1.6,0,3.3-0.1,4.9c-1.3,0.9-2.7,1.7-4.1,2.5l0,0c-1.4,0.8-2.8,1.6-4.2,2.4c-1.4-0.7-2.9-1.5-4.2-2.4
		l0,0c-1.5-0.8-2.8-1.6-4.2-2.5c-0.1-1.6-0.1-3.2-0.1-4.9c0-1.7,0-3.3,0.1-4.9c1.4-0.9,2.7-1.7,4.2-2.5l0,0
		C638.6,84.9,640,84.1,641.4,83.3L641.4,83.3z M641.5,89c-0.7,0-1.4,0.2-2,0.5s-1.2,0.8-1.5,1.5c-0.4,0.6-0.5,1.3-0.5,2.1
		c0,0.7,0.2,1.4,0.5,2l0,0c0.4,0.6,0.9,1.1,1.5,1.5s1.3,0.5,2,0.5s1.4-0.2,2-0.5c0.6-0.4,1.2-0.8,1.5-1.5l0,0c0.4-0.6,0.5-1.3,0.5-2
		s-0.2-1.4-0.5-2.1c-0.4-0.6-0.9-1.2-1.5-1.5C642.8,89.1,642.2,89,641.5,89L641.5,89z M629.5,90.6c0,0.8,0,1.6,0,2.4s0,1.6,0,2.4
		c-1.1-0.8-2.3-1.6-3.3-2.4C627.2,92.2,628.3,91.4,629.5,90.6z M653.4,90.6c1.2,0.8,2.3,1.6,3.4,2.4c-1.1,0.8-2.2,1.6-3.4,2.4
		c0-0.8,0.1-1.6,0.1-2.4S653.5,91.4,653.4,90.6z M623.4,95.3c2,1.6,4.1,3.1,6.3,4.6c0.2,2.6,0.5,5.2,0.8,7.7
		c-4.4,1.6-8.1,2.6-10.9,2.7c-1.5,0.1-2.7-0.1-3.6-0.3c-0.9-0.3-1.4-0.7-1.7-1.2s-0.4-1.2-0.2-2c0.2-0.9,0.7-2,1.5-3.3l0,0
		C617.1,101,619.7,98.3,623.4,95.3L623.4,95.3z M659.5,95.3c3.6,3,6.3,5.7,7.8,8.1l0,0c0.8,1.3,1.3,2.4,1.5,3.3s0.1,1.5-0.2,2l0,0
		c-0.3,0.5-0.8,0.9-1.7,1.2c-0.9,0.3-2.1,0.4-3.6,0.3c-2.8-0.1-6.6-1.1-11-2.7c0.4-2.5,0.7-5.1,0.8-7.7
		C655.4,98.4,657.5,96.9,659.5,95.3L659.5,95.3z M633.4,102.2c0.7,0.4,1.3,0.9,2.1,1.3c0.7,0.4,1.4,0.8,2.1,1.2
		c-1.3,0.6-2.5,1.1-3.8,1.7C633.6,105,633.5,103.6,633.4,102.2L633.4,102.2z M649.5,102.2c-0.1,1.4-0.3,2.7-0.4,4.1
		c-1.2-0.5-2.5-1.1-3.7-1.7c0.7-0.4,1.4-0.8,2.2-1.2l0,0C648.2,103.1,648.8,102.6,649.5,102.2L649.5,102.2z M641.4,106.6
		c2.4,1.2,4.8,2.2,7.2,3.1c-0.8,4.5-1.8,8.2-3.1,10.7l0,0c-0.7,1.4-1.4,2.3-2.1,3s-1.3,0.9-1.9,0.9c-0.6,0-1.2-0.3-1.9-0.9
		s-1.4-1.6-2.1-3c-1.3-2.5-2.4-6.2-3.1-10.7C636.7,108.8,639,107.8,641.4,106.6L641.4,106.6z"/>
	<path id="path5369" inkscape:connector-curvature="0" class="st0" d="M603.3,115.1v15.8c0,5.8,4.7,10.5,10.5,10.5h73.5
		c5.8,0,10.5-4.7,10.5-10.5v-15.8L603.3,115.1L603.3,115.1z"/>
	<g id="text5373">
		<path id="path4608" inkscape:connector-curvature="0" class="st2" d="M614.8,121.9c1.4,0,2.5,0.3,3.3,1s1.2,1.6,1.2,2.8
			c0,1.3-0.4,2.3-1.2,3c-0.8,0.7-1.9,1.1-3.3,1.1h-2.4v3.3h-2.1v-11.2L614.8,121.9L614.8,121.9z M614.7,127.9c0.8,0,1.4-0.2,1.9-0.5
			c0.4-0.4,0.7-0.9,0.7-1.6s-0.2-1.2-0.7-1.5c-0.4-0.3-1-0.5-1.9-0.5h-2.3v4.1H614.7z"/>
		<path id="path4610" inkscape:connector-curvature="0" class="st2" d="M627,133.1l-1.9-3.3c-0.1,0-0.2,0-0.4,0h-2.5v3.3H620v-11.2
			h4.7c1.5,0,2.6,0.3,3.4,1c0.8,0.7,1.2,1.6,1.2,2.8c0,0.9-0.2,1.6-0.6,2.2c-0.4,0.6-0.9,1.1-1.6,1.4l2.5,3.7L627,133.1z
			 M622.2,127.9h2.5c0.8,0,1.4-0.2,1.9-0.5c0.4-0.4,0.6-0.9,0.6-1.6s-0.2-1.2-0.6-1.5c-0.4-0.3-1-0.5-1.9-0.5h-2.5V127.9z"/>
		<path id="path4612" inkscape:connector-curvature="0" class="st2" d="M635.7,121.8c1.1,0,2.1,0.3,3,0.8s1.6,1.2,2.2,2.1
			c0.5,0.9,0.8,1.8,0.8,2.9c0,1.1-0.3,2-0.8,2.9s-1.2,1.6-2.2,2.1c-0.9,0.5-1.9,0.8-3,0.8s-2.1-0.3-3-0.8s-1.6-1.2-2.1-2.1
			c-0.5-0.9-0.8-1.9-0.8-2.9c0-1.1,0.3-2,0.8-2.9s1.2-1.6,2.1-2.1C633.5,122,634.6,121.8,635.7,121.8z M635.7,123.7
			c-0.7,0-1.3,0.2-1.9,0.5c-0.6,0.3-1.1,0.8-1.4,1.4c-0.3,0.6-0.5,1.2-0.5,1.9s0.2,1.3,0.5,1.9c0.4,0.6,0.8,1.1,1.4,1.4
			c0.6,0.3,1.2,0.5,1.9,0.5s1.3-0.2,1.9-0.5c0.6-0.3,1-0.8,1.4-1.4c0.3-0.6,0.5-1.2,0.5-1.9c0-0.7-0.2-1.3-0.5-1.9s-0.8-1-1.4-1.4
			C637,123.9,636.4,123.7,635.7,123.7z"/>
		<path id="path4614" inkscape:connector-curvature="0" class="st2" d="M649.7,127.5h1.9v4.3c-0.6,0.4-1.3,0.8-2.1,1.1
			s-1.6,0.4-2.4,0.4c-1.1,0-2.1-0.3-3-0.8s-1.6-1.2-2.1-2.1c-0.5-0.9-0.8-1.9-0.8-2.9c0-1.1,0.3-2,0.8-2.9s1.3-1.6,2.2-2.1
			s2-0.8,3.1-0.8c0.8,0,1.6,0.1,2.4,0.4c0.8,0.3,1.5,0.7,2,1.2l-1.2,1.6c-0.4-0.4-0.9-0.7-1.5-0.9c-0.6-0.2-1.1-0.3-1.7-0.3
			c-0.7,0-1.4,0.2-2,0.5s-1.1,0.8-1.4,1.4c-0.3,0.6-0.5,1.2-0.5,1.9s0.2,1.3,0.5,1.9c0.4,0.6,0.8,1.1,1.4,1.4c0.6,0.3,1.2,0.5,2,0.5
			c0.4,0,0.8-0.1,1.2-0.2c0.4-0.1,0.8-0.3,1.2-0.5L649.7,127.5L649.7,127.5z"/>
		<path id="path4616" inkscape:connector-curvature="0" class="st2" d="M660.1,133.1l-1.9-3.3c-0.1,0-0.2,0-0.4,0h-2.5v3.3h-2.1
			v-11.2h4.7c1.5,0,2.6,0.3,3.4,1c0.8,0.7,1.2,1.6,1.2,2.8c0,0.9-0.2,1.6-0.6,2.2c-0.4,0.6-0.9,1.1-1.6,1.4l2.5,3.7L660.1,133.1z
			 M655.2,127.9h2.5c0.8,0,1.4-0.2,1.9-0.5c0.4-0.4,0.6-0.9,0.6-1.6s-0.2-1.2-0.6-1.5c-0.4-0.3-1-0.5-1.9-0.5h-2.5V127.9z"/>
		<path id="path4618" inkscape:connector-curvature="0" class="st2" d="M663.6,121.9h8.2v1.9h-6.1v2.8h5.4v1.9h-5.4v2.8h6.3v1.9
			h-8.4V121.9z"/>
		<path id="path4620" inkscape:connector-curvature="0" class="st2" d="M680.2,124.8c-0.6-0.4-1.2-0.6-1.8-0.8
			c-0.6-0.2-1.1-0.3-1.6-0.3s-0.9,0.1-1.2,0.3c-0.3,0.2-0.4,0.5-0.4,0.8s0.1,0.6,0.3,0.8c0.2,0.2,0.5,0.4,0.8,0.5s0.8,0.3,1.3,0.4
			c0.8,0.2,1.4,0.4,1.9,0.7c0.5,0.2,0.9,0.6,1.2,1c0.3,0.4,0.5,1,0.5,1.7s-0.2,1.3-0.6,1.8c-0.4,0.5-0.9,0.9-1.5,1.2
			s-1.4,0.4-2.2,0.4c-0.9,0-1.7-0.2-2.6-0.5c-0.8-0.3-1.6-0.8-2.2-1.3l0.9-1.8c0.6,0.5,1.2,0.9,1.9,1.2s1.4,0.4,2,0.4
			s1.1-0.1,1.4-0.3c0.3-0.2,0.5-0.5,0.5-0.9c0-0.3-0.1-0.6-0.3-0.8s-0.5-0.4-0.8-0.5s-0.8-0.3-1.3-0.4c-0.8-0.2-1.4-0.4-1.9-0.7
			c-0.5-0.2-0.9-0.5-1.2-1c-0.3-0.4-0.5-1-0.5-1.7s0.2-1.2,0.5-1.7c0.4-0.5,0.8-0.9,1.5-1.1c0.6-0.3,1.4-0.4,2.2-0.4
			c0.7,0,1.4,0.1,2.1,0.3c0.7,0.2,1.3,0.5,1.9,0.9L680.2,124.8z"/>
		<path id="path4622" inkscape:connector-curvature="0" class="st2" d="M689.3,124.8c-0.6-0.4-1.2-0.6-1.8-0.8
			c-0.6-0.2-1.1-0.3-1.6-0.3s-0.9,0.1-1.2,0.3c-0.3,0.2-0.4,0.5-0.4,0.8s0.1,0.6,0.3,0.8c0.2,0.2,0.5,0.4,0.8,0.5s0.8,0.3,1.3,0.4
			c0.8,0.2,1.4,0.4,1.9,0.7c0.5,0.2,0.9,0.6,1.2,1c0.3,0.4,0.5,1,0.5,1.7s-0.2,1.3-0.6,1.8c-0.4,0.5-0.9,0.9-1.5,1.2
			s-1.4,0.4-2.2,0.4c-0.9,0-1.7-0.2-2.6-0.5c-0.8-0.3-1.6-0.8-2.2-1.3l0.9-1.8c0.6,0.5,1.2,0.9,1.9,1.2s1.4,0.4,2,0.4
			s1.1-0.1,1.4-0.3c0.3-0.2,0.5-0.5,0.5-0.9c0-0.3-0.1-0.6-0.3-0.8s-0.5-0.4-0.8-0.5s-0.8-0.3-1.3-0.4c-0.8-0.2-1.4-0.4-1.9-0.7
			c-0.5-0.2-0.9-0.5-1.2-1c-0.3-0.4-0.5-1-0.5-1.7s0.2-1.2,0.5-1.7c0.4-0.5,0.8-0.9,1.5-1.1c0.6-0.3,1.4-0.4,2.2-0.4
			c0.7,0,1.4,0.1,2.1,0.3c0.7,0.2,1.3,0.5,1.9,0.9L689.3,124.8z"/>
	</g>
</g>
<text transform="matrix(1 0 0 1 -1010.7832 -268.4608)" class="st2 st8" style="font-size:32px;">ORD</text>
<g>
	<path id="rect5163" class="st0" d="M15,0h170c8.3,0,15,6.7,15,15v170c0,8.3-6.7,15-15,15H15c-8.3,0-15-6.7-15-15V15
		C0,6.7,6.7,0,15,0z"/>
	<path id="rect5165" class="st4" d="M20,10h160c5.5,0,10,4.5,10,10v160c0,5.5-4.5,10-10,10H20c-5.5,0-10-4.5-10-10V20
		C10,14.5,14.5,10,20,10z"/>
	
		<path id="path4728" inkscape:connector-curvature="0" sodipodi:nodetypes="ccccccccccccccccccccccccccccccccccccccccccccccccccccscccccccccccccccccccccccccccccccccccccccccccccccccccccccccccccccccccccccccccccccccccccccccccccccccccccccccccccccccccccccccccccscccccccccccccccccccccccccccccccccccccccccccccccccccccccccccccccccccccccccccccccccccccccccccccccccccccccccccccccccccccccccccc" class="st0" d="
		M130.3,39.8c-1.3-0.4-2.9-0.4-4.3,0c-1.9,0.6-2.1,1-3.2,4.8c-0.5,1.8-1,3.7-1.2,4.3s-0.5,1.6-0.6,2.1s-0.4,1.6-0.6,2.4
		c-0.7,2.4-1.5,5.3-1.5,5.5c0,0.1-0.2,0.9-0.5,1.7c-0.2,0.8-0.6,2.1-0.8,2.8c-0.2,0.7-0.7,2.8-1.2,4.6s-0.9,3.3-0.9,3.4
		c0,0-0.1,0.4-0.2,0.9c-0.3,0.9-1.5,5.8-2.2,9c-0.4,1.9-0.6,3.8-0.5,5.4c0.1,1,0.7,2.4,1.4,3.2c0.6,0.7,0.9,0.9,1.8,1.1
		c1,0.2,1.2,0.2,2.4-0.2c1.1-0.3,1.5-0.6,2.2-1.2c1.3-1.2,1.4-1.4,3.3-8.1c0.8-2.9,1.6-5.7,1.7-6.1c0-0.2,0.3-1,0.5-1.9
		c0.3-0.9,0.5-1.7,0.5-1.8c0-0.1,0.3-1,0.6-2.1c0.3-1,0.8-2.8,1.1-3.9s0.8-2.8,1.1-3.9c0.3-1,0.5-1.9,0.5-2s0.2-0.9,0.5-1.9
		c1.2-4,3.4-12.2,3.6-13.2c0.1-0.6,0.1-1.1-0.2-2c-0.3-1.1-0.4-1.3-1.2-2C131.9,40.4,131.1,40,130.3,39.8L130.3,39.8z M55.4,19.8
		c-1.2-0.4-2.6-0.4-3.9-0.1c-1.1,0.3-1.4,0.4-1.9,1c-0.6,0.6-0.8,1.1-1.8,4.5c-0.6,2.1-1.2,4.1-1.3,4.5c-0.1,0.3-0.3,1.2-0.6,2
		c-0.2,0.8-0.5,1.6-0.5,1.8s-0.2,0.8-0.3,1.2c-0.2,0.8-1.3,4.6-2.4,8.7c-0.3,1.1-0.8,2.9-1.1,3.9S41,49.5,40.9,50
		c-0.1,0.4-0.5,1.9-0.8,3.2c-2.2,8.5-2.7,11.3-2.5,13.5c0.1,1.2,0.2,1.5,0.7,2.4c0.6,1.1,1.5,1.9,2.8,2.1c0.9,0.2,1.2,0.2,2.2-0.2
		c2-0.7,3.8-2.7,4.2-4.7c0.1-0.4,0.3-1.4,0.6-2.3c0.2-0.8,0.5-1.8,0.6-2.1s0.3-1.3,0.6-2.1c0.2-0.8,0.7-2.5,1.1-3.8
		c0.3-1.3,0.8-3,1.1-3.9c0.2-0.9,0.6-2.2,0.8-2.9c0.4-1.4,0.5-1.7,1.3-4.7c0.3-1.1,0.7-2.4,0.8-2.9c0.1-0.4,0.4-1.4,0.6-2.1
		c0.2-0.7,0.4-1.3,0.4-1.3s0.2-0.9,0.5-2s0.8-2.8,1.1-3.9c0.3-1.1,0.7-2.7,1-3.6c1.2-4.4,1.3-5.7,0.5-7.1
		C57.6,20.9,56.6,20.2,55.4,19.8L55.4,19.8z M68.2,25.6l-0.3,1c-1,3.5-1.5,5.4-1.5,5.4s-0.3,1.1-0.6,2.3c-0.7,2.4-1.3,4.6-2.1,7.7
		c-0.3,1.1-0.7,2.7-1,3.6c-0.2,0.9-0.6,2.1-0.7,2.8c-0.2,0.6-0.4,1.4-0.5,1.7s-0.4,1.3-0.6,2.2c-0.2,0.9-0.5,2-0.7,2.5
		c-0.5,1.6-1.4,5.1-1.4,5.2c0,0-0.2,1-0.6,2c-0.3,1.1-0.6,2-0.5,2.1c0,0-0.1,0.5-0.2,0.9c-0.3,0.8-1.3,4.5-1.8,6.6l0,0
		c-0.1,0.5-0.2,1.1-0.1,1.2c0.1,0.1,0.9,0.4,1.8,0.7c0.9,0.3,2.5,0.7,3.6,1c1,0.3,2.8,0.8,4,1.1c1.2,0.3,2.2,0.6,2.2,0.6
		s0.8,0.2,1.6,0.4c1.3,0.4,3.3,0.9,5.8,1.6c2.4,0.6,4.4,1.2,6.3,1.7c1.2,0.3,2.2,0.6,2.3,0.6c0,0,1,0.2,2.2,0.6
		c1.1,0.3,2.4,0.7,2.8,0.8c0.4,0.1,1.6,0.4,2.8,0.8c1.2,0.3,2.9,0.8,3.7,1c0.8,0.2,2.1,0.6,2.8,0.8c0.7,0.2,1.3,0.4,1.3,0.4
		c0.1,0,0.7,0.1,1.4,0.4c0.7,0.2,1.3,0.4,1.4,0.3c0-0.1,0.9-3.3,1.3-4.9c0.2-0.7,0.5-1.9,0.7-2.6s0.4-1.4,0.4-1.5
		c0,0,0.2-0.8,0.4-1.7c0.5-1.7,1.4-5.1,2.3-8.3c0.3-1.1,0.7-2.7,1-3.6c0.2-0.9,0.6-2.1,0.7-2.8c0.2-0.6,0.4-1.4,0.5-1.7
		s0.4-1.3,0.6-2.2s0.5-2,0.7-2.5c0.5-1.8,1.4-5.1,1.4-5.2c0,0,0.3-1.1,0.6-2.3c0.3-1.2,0.8-2.9,1.1-3.8c0.6-2.3,1.1-4.2,1-4.3
		c-0.5-0.2-4.2-1.2-4.2-1.2s-0.9-0.2-2-0.5s-2.9-0.8-4.1-1.1s-3-0.8-3.9-1.1c-1-0.3-1.8-0.5-1.8-0.5s-1-0.2-2.1-0.5s-2-0.6-2.1-0.5
		c0,0-0.6-0.1-1.1-0.3c-0.6-0.2-1.5-0.4-2.1-0.6c-0.6-0.1-1.8-0.5-2.8-0.7c-0.9-0.3-2.6-0.7-3.7-1c-3-0.8-5.3-1.4-7.7-2.1
		c-1.2-0.3-2.3-0.6-2.4-0.6c-0.2,0-2-0.5-5.1-1.4L68.2,25.6z M120.7,41.7c-0.4-0.1-1.5-0.4-2.4-0.6c-0.9-0.2-1.7-0.4-1.8-0.5
		c-0.2-0.1-0.4,0.4-0.7,1.6c-0.7,2.7-0.8,3-1.3,5c-0.3,1.1-0.5,2-0.5,2s-0.2,1-0.5,2.1s-0.6,2-0.5,2.1c0,0.1-0.2,1-1.5,5.6
		c-0.3,1.2-0.6,2.3-0.6,2.3c0,0.1-1,4.1-1.6,6.2c-0.2,0.6-0.4,1.5-0.5,2.1c-0.2,0.9-2.9,11.3-3.4,13l0,0c-0.1,0.4-0.2,0.9-0.2,0.9
		c0,0.1,0.6,0.3,3.5,1.1c1,0.2,1.8,0.4,1.8,0.4c0.1-0.2,0.9-3.6,1.1-4.5c0.1-0.6,0.5-1.9,0.7-2.9c0.6-2.3,2.3-8.6,2.6-9.9
		c0.1-0.5,0.4-1.6,0.6-2.3c0.2-0.7,0.4-1.4,0.4-1.4c0-0.1,0.2-1,0.5-2.1s0.6-2,0.5-2.1c0-0.1,0.2-1,0.5-2.1s0.6-2,0.5-2.1
		c0,0,0.1-0.5,0.3-1.1c0.2-0.6,0.5-1.9,0.8-3s0.8-3,1.1-4.3c0.3-1.3,0.8-3,1-3.8l0.4-1.5L120.7,41.7z M61.4,26.1
		c-0.7-0.2-0.9-0.2-0.9,0.1c-0.3,1-2.1,7.7-2.1,7.8c0,0-0.2,0.8-0.4,1.7s-0.7,2.6-1,3.7c-0.3,1.1-0.8,3-1.1,4
		c-0.3,1.1-0.6,2.2-0.7,2.6c-0.1,0.3-0.3,1.3-0.5,2.1s-0.5,1.8-0.6,2.3c-0.2,0.9-1,3.9-2.5,9.7c-0.3,1-0.8,3-1.2,4.5
		c-0.4,1.4-0.8,3-1,3.4c-0.1,0.4-0.2,0.8-0.2,0.9s0.4,0.3,0.9,0.4s1.6,0.4,2.5,0.7c0.9,0.3,1.7,0.4,1.7,0.4c0.1,0,0.8-2.7,1.4-5
		c0.1-0.5,0.5-2,0.8-3.2s0.8-3,1-3.9s0.7-2.4,0.9-3.4c0.3-1,0.5-1.8,0.5-1.9c0,0,0.2-1,0.5-2.1s0.6-2,0.5-2.1c0-0.1,0.2-1,0.5-2.1
		s0.6-2,0.5-2.1c0-0.1,0.2-0.9,0.5-1.9s0.5-1.8,0.5-1.9c0-0.1,0.1-0.6,0.3-1.2c0.2-0.6,0.6-2.1,0.9-3.2c0.3-1.2,0.8-3.1,1.1-4.2
		c1.2-4.6,1.2-4.8,1-4.9C65.2,27.1,62.6,26.4,61.4,26.1L61.4,26.1z M71.5,79.8L71.4,80c-0.3,1-0.6,2-0.6,2c0,0.1-0.3,1.3-0.7,2.4
		C70,84.8,70,85.1,70,85.2c0,0-0.1,0.4-0.2,0.8s-0.3,1.1-0.5,1.6c-0.1,0.4-0.3,1-0.4,1.4c-0.1,0.3-0.2,0.8-0.3,1
		c0,0.2-0.2,0.6-0.3,1c-0.1,0.4-0.3,1-0.4,1.4s-0.3,1.1-0.5,1.6c-0.1,0.5-0.3,1.2-0.5,1.6c-0.2,0.8-0.7,2.3-0.9,3.3
		c-0.1,0.3-0.3,0.9-0.4,1.4s-0.3,1.3-0.5,1.7c-0.5,1.9-0.6,2.2-0.8,3c-0.2,1-0.3,1.1-0.6,2c-0.1,0.4-0.3,1-0.4,1.4
		c-0.4,1.6-0.6,2-0.8,2.7c-0.1,0.4-0.2,0.7-0.2,0.7s0.7,0.2,1.5,0.5c2,0.5,5.3,1.4,6.1,1.7c0.4,0.1,1.8,0.5,3.2,0.9
		c1.4,0.4,2.5,0.7,2.6,0.7s0.2-0.5,0.7-2.3c0.1-0.4,0.3-1.1,0.4-1.5S77,111,77,111s0.1-0.4,0.2-0.9c0.1-0.4,0.5-1.7,0.5-1.7
		c0.1-0.5,0.4-1.2,0.5-1.5s0.2-0.6,0.2-0.6s0.3-1.2,0.6-2.1c0.1-0.2,0.2-0.5,0.2-0.8c0.1-0.3,0.2-0.8,0.3-1.1c0.1-0.4,0.3-1,0.4-1.4
		s0.3-1.2,0.5-1.7s0.4-1.3,0.5-1.7c0.1-0.4,0.3-1,0.4-1.3s0.2-0.7,0.3-0.9c0-0.2,0.1-0.6,0.2-0.8c0.1-0.2,0.2-0.5,0.2-0.7
		c0.1-0.4,0.4-1.7,0.7-2.5c0.1-0.4,0.2-0.7,0.2-0.7s0-0.3,0.1-0.6c0.1-0.3,0.3-1.1,0.5-1.8c0.2-0.7,0.4-1.5,0.5-1.8s0.2-0.6,0.1-0.6
		c0,0,0.1-0.3,0.2-0.7c0.1-0.3,0.2-0.8,0.3-0.9v-0.3L84,83.7c-0.3-0.1-1.1-0.3-1.7-0.5s-1.9-0.5-2.9-0.8c-3.8-1-5.5-1.5-6.1-1.7
		c-0.4-0.1-1-0.3-1.4-0.4L71.5,79.8z M78.5,117.9c-1.2-0.3-3-0.8-3.8-1c-0.9-0.2-1.7-0.4-1.7-0.4c-0.1,0-0.7-0.1-1.5-0.3
		c-1.7-0.5-5.6-1.5-7-1.8c-3-0.7-6.1-1.5-6.3-1.6c-0.1-0.1-0.3-0.1-0.3-0.1c-0.1,0-0.7,1.9-0.8,2.6c0,0.2-0.3,1.4-0.7,2.7l-0.6,2.5
		l0.5,0.2c0.3,0.1,0.5,0.2,0.6,0.2s1.2,0.2,2.4,0.6c4.3,1.1,4.9,1.3,7.4,1.9c3.3,0.8,3.2,0.8,4.5,1.2c0.7,0.2,1.6,0.4,2.2,0.5
		c0.5,0.1,1.2,0.3,1.5,0.4c0.6,0.2,3.9,1,4,1c0,0,0.2-0.7,0.4-1.4c0.2-0.8,0.6-2.5,0.9-3.7c0.3-1.3,0.6-2.4,0.6-2.5
		C80.7,118.6,79.7,118.2,78.5,117.9L78.5,117.9z M61.1,123.7c-1.2-0.3-2.2-0.5-2.3-0.5c-0.2,0.1-0.4,1.1-1.3,4.5
		c-0.3,1.2-0.5,2.1-1.7,6.3c-0.3,1.2-0.7,2.6-0.8,3.1c-0.5,2-1,3.7-1.4,5.2c-0.2,0.8-0.4,1.6-0.4,1.6s-0.2,0.7-0.4,1.5
		s-0.4,1.5-0.4,1.5s-0.2,0.8-0.4,1.6c-0.3,0.9-0.5,1.6-0.4,1.6c0,0-0.2,0.7-0.4,1.5s-0.4,1.5-0.4,1.7s-0.1,0.6-0.3,1.1
		c-0.1,0.4-0.4,1.2-0.5,1.7l15.7,4.4c0.3-1,2.1-7.4,2.3-8.2c0.2-0.8,0.4-1.6,0.4-1.6s0.1-0.6,0.3-1.4c0.9-3.2,1.3-4.9,1.3-4.9
		s0.2-0.8,0.4-1.6c0.3-0.9,0.5-1.6,0.4-1.6c0,0,0.2-0.9,0.5-1.9c1-3.6,1.2-4.4,1.2-4.5c0,0,0.2-0.8,0.4-1.6c0.3-0.9,0.5-1.6,0.4-1.6
		c0,0,0.1-0.6,0.3-1.2c0.4-1.4,0.9-3.2,0.8-3.3c-0.1,0-3.4-0.9-5.6-1.5C64.1,124.5,63.2,124.2,61.1,123.7L61.1,123.7z"/>
	<path id="rect5205-3-6" inkscape:connector-curvature="0" class="st0" d="M5.5,140v31.5c0,11.6,9.4,21,21,21h147
		c11.6,0,21-9.4,21-21V140H5.5z"/>
	<text transform="matrix(1 0 0 1 11 179)" class="st5 st6 st7">STAATSGEWALT</text>
</g>
<g>
	<g id="g5175" transform="matrix(2,0,0,2,-13.796138,153.58655)">
		<path id="rect5163_1_" class="st0" d="M13.6-76.8h85.1c4.1,0,7.5,3.3,7.5,7.5v85.1c0,4.1-3.3,7.5-7.5,7.5H13.6
			c-4.1,0-7.5-3.3-7.5-7.5v-85.1C6.1-73.5,9.5-76.8,13.6-76.8z"/>
		<path id="rect5165_1_" class="st4" d="M16.1-71.7h80c2.8,0,5.1,2.3,5.1,5.1v80c0,2.8-2.3,5.1-5.1,5.1h-80c-2.8,0-5.1-2.3-5.1-5.1
			v-80C11.1-69.6,13.3-71.7,16.1-71.7z"/>
		
			<path id="path4728_2_" inkscape:connector-curvature="0" sodipodi:nodetypes="ccccccccccccccccccccccccccccccccccccccccccccccccccccscccccccccccccccccccccccccccccccccccccccccccccccccccccccccccccccccccccccccccccccccccccccccccccccccccccccccccccccccccccccccccccscccccccccccccccccccccccccccccccccccccccccccccccccccccccccccccccccccccccccccccccccccccccccccccccccccccccccccccccccccccccccccc" class="st0" d="
			M71.3-56.9c-0.7-0.3-1.5-0.3-2.1,0c-0.9,0.3-1.1,0.5-1.6,2.4c-0.3,0.9-0.5,1.9-0.7,2.1c-0.1,0.3-0.3,0.8-0.3,1.1
			c0,0.3-0.3,0.8-0.3,1.2c-0.4,1.2-0.8,2.7-0.8,2.8c0,0-0.1,0.4-0.3,0.8c-0.1,0.4-0.3,1.1-0.4,1.3c-0.1,0.4-0.4,1.3-0.7,2.3
			s-0.4,1.7-0.4,1.7s0,0.3-0.1,0.4c-0.1,0.4-0.8,2.9-1.1,4.5c-0.3,0.9-0.3,1.9-0.3,2.7c0,0.5,0.4,1.2,0.7,1.6s0.4,0.4,0.9,0.5
			c0.5,0.1,0.5,0.1,1.2-0.1c0.5-0.1,0.8-0.3,1.1-0.7c0.7-0.5,0.7-0.7,1.6-4c0.4-1.5,0.8-2.8,0.8-3.1c0-0.1,0.1-0.5,0.3-0.9
			c0.1-0.4,0.3-0.8,0.3-0.9c0,0,0.1-0.5,0.3-1.1c0.1-0.5,0.4-1.3,0.5-1.9c0.1-0.5,0.4-1.5,0.5-2c0.1-0.5,0.3-0.9,0.3-0.9
			s0.1-0.4,0.3-0.9c0.5-2,1.7-6.1,1.9-6.7c0-0.3,0-0.5-0.1-0.9c-0.1-0.5-0.3-0.7-0.5-0.9C72-56.5,71.7-56.8,71.3-56.9L71.3-56.9z
			 M33.9-66.9c-0.7-0.1-1.3-0.3-2,0c-0.5,0.1-0.7,0.3-0.9,0.5s-0.4,0.5-0.9,2.3c-0.3,1.1-0.5,2.1-0.7,2.3c0,0.1-0.1,0.7-0.3,0.9
			c-0.1,0.4-0.3,0.8-0.3,0.9c0,0.1-0.1,0.4-0.1,0.7c-0.1,0.4-0.7,2.3-1.2,4.4c-0.1,0.5-0.4,1.5-0.5,2c-0.1,0.5-0.3,1.1-0.4,1.3
			c0,0.3-0.3,0.9-0.4,1.6c-1.1,4.3-1.3,5.6-1.2,6.8c0,0.7,0.1,0.8,0.3,1.2c0.3,0.5,0.8,0.9,1.5,1.1c0.4,0.1,0.7,0.1,1.1-0.1
			c1.1-0.4,1.9-1.3,2.1-2.3c0-0.3,0.1-0.7,0.3-1.1c0.1-0.4,0.3-0.9,0.3-1.1s0.1-0.7,0.3-1.1c0.1-0.4,0.4-1.2,0.5-1.9
			c0.1-0.7,0.4-1.5,0.5-1.9c0.1-0.4,0.3-1.1,0.4-1.5c0.1-0.7,0.3-0.9,0.7-2.4c0.1-0.5,0.4-1.2,0.4-1.5c0-0.3,0.1-0.7,0.3-1.1
			c0.1-0.4,0.1-0.7,0.1-0.7s0.1-0.5,0.3-1.1c0.1-0.5,0.4-1.5,0.5-2c0.1-0.5,0.4-1.3,0.5-1.7c0.7-2.1,0.7-2.9,0.3-3.6
			C34.9-66.4,34.4-66.7,33.9-66.9L33.9-66.9z M40.3-64l-0.1,0.5c-0.5,1.7-0.8,2.7-0.8,2.7s-0.1,0.5-0.3,1.2
			c-0.4,1.2-0.7,2.3-1.1,3.9c-0.1,0.5-0.4,1.3-0.5,1.7c-0.1,0.4-0.3,1.1-0.4,1.3c-0.1,0.3-0.1,0.7-0.3,0.8c0,0.1-0.1,0.7-0.3,1.1
			c-0.1,0.4-0.3,1.1-0.3,1.2c-0.3,0.8-0.7,2.5-0.7,2.5s-0.1,0.5-0.3,1.1c-0.1,0.5-0.3,1.1-0.3,1.1s0,0.3-0.1,0.4
			c-0.1,0.4-0.7,2.3-0.9,3.3l0,0c-0.1,0.3-0.1,0.5-0.1,0.7c0,0,0.4,0.3,0.9,0.4c0.4,0.1,1.2,0.4,1.7,0.5c0.5,0.1,1.5,0.4,2,0.5
			c0.5,0.1,1.1,0.3,1.1,0.3s0.4,0.1,0.8,0.3c0.7,0.1,1.6,0.4,2.9,0.8c1.2,0.3,2.3,0.5,3.1,0.8c0.7,0.1,1.1,0.3,1.2,0.3
			c0,0,0.5,0.1,1.1,0.3c0.5,0.1,1.2,0.3,1.3,0.4c0.1,0,0.8,0.3,1.5,0.4c0.5,0.1,1.5,0.4,1.9,0.5c0.4,0.1,1.1,0.3,1.3,0.4
			c0.4,0.1,0.7,0.1,0.7,0.1s0.4,0.1,0.7,0.1c0.4,0.1,0.7,0.1,0.7,0.1s0.4-1.6,0.7-2.4c0.1-0.4,0.3-0.9,0.4-1.3
			c0.1-0.4,0.1-0.7,0.1-0.7s0.1-0.4,0.3-0.8c0.3-0.8,0.7-2.5,1.2-4.1c0.1-0.5,0.4-1.3,0.5-1.7c0.1-0.4,0.3-1.1,0.4-1.3
			c0.1-0.3,0.1-0.7,0.3-0.8c0-0.1,0.1-0.7,0.3-1.1c0.1-0.4,0.3-1.1,0.3-1.2c0.3-0.9,0.7-2.5,0.7-2.5s0.1-0.5,0.3-1.2
			c0.1-0.7,0.4-1.5,0.5-1.9c0.3-1.2,0.5-2.1,0.5-2.1c-0.3-0.1-2.1-0.7-2.1-0.5c0,0-0.5-0.1-1.1-0.3c-0.5-0.1-1.5-0.4-2-0.5
			c-0.5-0.1-1.5-0.4-2-0.5c-0.5-0.1-0.9-0.3-0.9-0.3s-0.5-0.1-1.1-0.3c-0.5-0.1-1.1-0.3-1.1-0.3s-0.3,0-0.5-0.1s-0.8-0.3-1.1-0.3
			c-0.3-0.1-0.9-0.3-1.3-0.4s-1.3-0.4-1.9-0.5c-1.5-0.4-2.7-0.7-3.9-1.1c-0.5-0.1-1.1-0.3-1.2-0.3c-0.1,0-1.1-0.3-2.5-0.7L40.3-64z
			 M66.4-55.9c-0.3-0.1-0.8-0.3-1.2-0.3c-0.4-0.1-0.8-0.3-0.9-0.3c-0.1,0-0.1,0.3-0.4,0.8c-0.4,1.3-0.4,1.5-0.7,2.5
			c-0.1,0.5-0.3,0.9-0.3,0.9s-0.1,0.5-0.3,1.1c-0.1,0.5-0.3,1.1-0.3,1.1s-0.1,0.5-0.8,2.8c-0.1,0.7-0.3,1.2-0.3,1.2s-0.5,2-0.8,3.1
			c-0.1,0.3-0.3,0.8-0.3,1.1c-0.1,0.4-1.5,5.6-1.7,6.5l0,0c0,0.3-0.1,0.4-0.1,0.4c0,0.1,0.3,0.1,1.7,0.5c0.5,0.1,0.9,0.3,0.9,0.1
			c0-0.1,0.5-1.7,0.5-2.3c0.1-0.3,0.3-0.9,0.4-1.5c0.3-1.1,1.2-4.3,1.3-4.9c0-0.3,0.3-0.8,0.3-1.2c0.1-0.4,0.1-0.7,0.1-0.7
			s0.1-0.5,0.3-1.1c0.1-0.5,0.3-1.1,0.3-1.1s0.1-0.5,0.3-1.1c0.1-0.5,0.3-1.1,0.3-1.1s0-0.3,0.1-0.5c0.1-0.3,0.3-0.9,0.4-1.5
			c0.1-0.5,0.4-1.5,0.5-2.1c0.1-0.7,0.4-1.5,0.5-1.9l0.1-0.8H66.4z M36.8-63.7c-0.4-0.1-0.4-0.1-0.5,0c-0.1,0.5-1.1,3.9-1.1,3.9
			s-0.1,0.4-0.3,0.8c-0.1,0.4-0.4,1.3-0.5,1.9c-0.1,0.5-0.4,1.5-0.5,2c-0.1,0.5-0.3,1.1-0.3,1.3c0,0.1-0.1,0.7-0.3,1.1
			c-0.1,0.4-0.3,0.9-0.3,1.2c-0.1,0.4-0.5,2-1.3,4.8c-0.1,0.5-0.4,1.5-0.5,2.3c-0.1,0.8-0.4,1.6-0.4,1.7s-0.1,0.4-0.1,0.4
			s0.3,0.1,0.4,0.1c0.3,0,0.8,0.3,1.2,0.3c0.4,0.1,0.8,0.3,0.9,0.3c0,0,0.4-1.3,0.7-2.5c0-0.3,0.3-0.9,0.4-1.6
			c0.1-0.7,0.4-1.5,0.5-2c0.1-0.4,0.3-1.2,0.4-1.7c0.1-0.5,0.3-0.9,0.3-0.9s0.1-0.5,0.3-1.1c0.1-0.5,0.3-1.1,0.3-1.1
			s0.1-0.5,0.3-1.1c0.1-0.5,0.3-1.1,0.3-1.1s0.1-0.4,0.3-0.9c0.1-0.5,0.3-0.9,0.3-0.9s0-0.3,0.1-0.7c0.1-0.3,0.3-1.1,0.4-1.6
			c0.1-0.5,0.4-1.6,0.5-2.1c0.7-2.3,0.7-2.4,0.5-2.4C38.7-63.2,37.5-63.6,36.8-63.7L36.8-63.7z M41.9-36.9L41.9-36.9
			c-0.1,0.5-0.3,1.1-0.3,1.1s-0.1,0.7-0.4,1.2c0,0.1-0.1,0.4-0.1,0.4s0,0.1-0.1,0.4c0,0.3-0.1,0.5-0.3,0.8c0,0.3-0.1,0.5-0.3,0.7
			c0,0.1-0.1,0.4-0.1,0.5c0,0.1-0.1,0.3-0.1,0.5c0,0.1-0.1,0.5-0.3,0.7c0,0.3-0.1,0.5-0.3,0.8c-0.1,0.3-0.1,0.5-0.3,0.8
			c-0.1,0.4-0.3,1.2-0.4,1.6c0,0.1-0.1,0.5-0.1,0.7c0,0.3-0.1,0.7-0.3,0.9c-0.3,0.9-0.3,1.1-0.4,1.5c-0.1,0.5-0.1,0.5-0.3,1.1
			c0,0.1-0.1,0.5-0.3,0.7c-0.3,0.8-0.3,1.1-0.4,1.3c0,0.1-0.1,0.4-0.1,0.4s0.4,0.1,0.8,0.3c0.9,0.3,2.7,0.7,3.1,0.8
			c0.1,0,0.9,0.3,1.6,0.4c0.7,0.1,1.2,0.3,1.3,0.3c0,0,0.1-0.3,0.4-1.2c0-0.3,0.1-0.5,0.3-0.8c0-0.3,0.1-0.4,0.1-0.4s0-0.3,0.1-0.4
			c0-0.3,0.3-0.9,0.3-0.9c0.1-0.3,0.1-0.7,0.3-0.8c0-0.1,0.1-0.3,0.1-0.3s0.1-0.5,0.3-1.1c0-0.1,0.1-0.3,0.1-0.4S46-25.9,46-26
			c0-0.1,0.1-0.5,0.1-0.7c0-0.3,0.1-0.7,0.3-0.9c0.1-0.3,0.1-0.7,0.3-0.9c0-0.3,0.1-0.5,0.1-0.7s0.1-0.4,0.1-0.5
			c0-0.1,0.1-0.3,0.1-0.4s0.1-0.3,0.1-0.4c0-0.3,0.3-0.8,0.4-1.2c0-0.1,0.1-0.4,0.1-0.4s0-0.1,0.1-0.3c0-0.1,0.1-0.5,0.3-0.9
			c0.1-0.4,0.3-0.8,0.3-0.9c0-0.1,0.1-0.3,0.1-0.3s0-0.1,0.1-0.3c0-0.1,0.1-0.4,0.1-0.5v-0.1l-0.3-0.1c-0.1,0-0.5-0.1-0.9-0.3
			c-0.3-0.1-0.9-0.3-1.5-0.4c-1.9-0.5-2.8-0.8-3.1-0.8c-0.1,0-0.5-0.1-0.7-0.1L41.9-36.9z M45.3-17.9c-0.7-0.1-1.5-0.4-1.9-0.5
			c-0.4-0.1-0.8-0.3-0.8-0.3s-0.4-0.1-0.7-0.1c-0.8-0.3-2.8-0.8-3.5-0.9c-1.5-0.4-3.1-0.8-3.2-0.8h-0.1c0,0-0.4,0.9-0.4,1.3
			c0,0.1-0.1,0.7-0.4,1.3l-0.3,1.2l0.3,0.1c0.1,0,0.3,0.1,0.3,0.1s0.5,0.1,1.2,0.3c2.1,0.5,2.4,0.7,3.7,0.9c1.7,0.4,1.6,0.4,2.3,0.5
			c0.3,0.1,0.8,0.3,1.1,0.3s0.5,0.1,0.8,0.1c0.3,0.1,1.9,0.5,2,0.5c0,0,0.1-0.3,0.3-0.7c0.1-0.4,0.3-1.2,0.5-1.9
			c0.1-0.7,0.3-1.2,0.3-1.2C46.5-17.5,46-17.6,45.3-17.9L45.3-17.9z M36.7-14.9c-0.5-0.1-1.1-0.3-1.2-0.3c-0.1,0-0.3,0.5-0.7,2.3
			c-0.1,0.5-0.3,1.1-0.8,3.2c-0.1,0.5-0.4,1.3-0.4,1.6c-0.3,0.9-0.5,1.9-0.7,2.7c-0.1,0.4-0.3,0.8-0.3,0.8s-0.1,0.4-0.1,0.8
			c-0.1,0.4-0.3,0.8-0.3,0.8S32.1-2.7,32-2.3c-0.1,0.4-0.3,0.8-0.3,0.8s-0.1,0.4-0.3,0.8c-0.1,0.4-0.3,0.8-0.3,0.8
			c0,0.1-0.1,0.3-0.1,0.5c-0.1,0.3-0.1,0.7-0.3,0.9l7.9,2.1c0.1-0.5,1.1-3.7,1.2-4.1c0.1-0.4,0.3-0.8,0.3-0.8s0.1-0.3,0.1-0.7
			c0.4-1.6,0.7-2.4,0.7-2.5c0,0,0.1-0.4,0.3-0.8C41.3-5.6,41.5-6,41.5-6s0.1-0.4,0.3-0.9c0.5-1.9,0.7-2.1,0.5-2.3
			c0,0,0.1-0.4,0.3-0.8c0.1-0.4,0.3-0.8,0.3-0.8s0-0.3,0.1-0.5c0.3-0.7,0.4-1.6,0.4-1.6s-1.7-0.5-2.8-0.8
			C38.1-14.5,37.7-14.7,36.7-14.9L36.7-14.9z"/>
		<path id="rect5205-3-6_2_" inkscape:connector-curvature="0" class="st0" d="M8.9-6.8V8.9c0,5.9,4.7,10.5,10.5,10.5h73.5
			c5.9,0,10.5-4.7,10.5-10.5V-6.8H8.9z"/>
		<g id="text5173">
			<path id="path4679" inkscape:connector-curvature="0" class="st2" d="M21.6,11.2l-0.9-2.4h-5.5l-0.9,2.4H12L16.9,0h2.3L24,11.2
				H21.6z M16,7.1h4l-2-4.7L16,7.1z"/>
			<path id="path4681" inkscape:connector-curvature="0" class="st2" d="M25.9,6.7c0,0.9,0.3,1.6,0.8,2.1c0.5,0.5,1.2,0.8,2,0.8
				c0.8,0,1.5-0.3,2-0.8c0.5-0.5,0.8-1.2,0.8-2.1V0h2.1v6.7c0,0.9-0.1,1.9-0.5,2.5c-0.4,0.7-0.9,1.2-1.7,1.6
				c-0.7,0.4-1.6,0.5-2.5,0.5c-1.1,0-1.9-0.1-2.7-0.5c-0.8-0.4-1.3-0.9-1.7-1.6s-0.5-1.6-0.5-2.5V0H26v6.7H25.9z"/>
			<path id="path4683" inkscape:connector-curvature="0" class="st2" d="M33.9,0h9.2v1.9h-3.5v9.3h-2.1V1.9H34V0H33.9z"/>
			<path id="path4685" inkscape:connector-curvature="0" class="st2" d="M43.5,0h2.1v4.8h5.6V0h2.1v11.2h-2.1V6.7h-5.6v4.5h-2.1V0z"
				/>
			<path id="path4687" inkscape:connector-curvature="0" class="st2" d="M60.1-0.1c1.1,0,2.1,0.3,3.1,0.8s1.6,1.2,2.1,2
				c0.5,0.9,0.8,1.9,0.8,2.9c0,1.1-0.3,2-0.8,2.9c-0.5,0.9-1.2,1.6-2.1,2.1c-0.9,0.5-1.9,0.8-3.1,0.8c-1.1,0-2.1-0.3-3.1-0.8
				c-0.9-0.5-1.6-1.2-2.1-2.1c-0.5-0.9-0.8-1.9-0.8-2.9c0-1.1,0.3-2,0.8-2.9c0.5-0.9,1.2-1.6,2.1-2C58,0.1,59.1-0.1,60.1-0.1z
				 M60.3,1.9c-0.7,0-1.3,0.1-1.9,0.5c-0.5,0.3-1.1,0.8-1.3,1.3c-0.4,0.5-0.5,1.2-0.5,1.9s0.1,1.3,0.5,2c0.4,0.5,0.8,1.1,1.3,1.3
				c0.5,0.4,1.2,0.5,1.9,0.5c0.7,0,1.3-0.1,1.9-0.5s1.1-0.8,1.3-1.3c0.4-0.5,0.5-1.2,0.5-2s-0.1-1.3-0.5-1.9
				c-0.3-0.5-0.8-1.1-1.3-1.3C61.5,2,60.9,1.9,60.3,1.9z"/>
			<path id="path4689" inkscape:connector-curvature="0" class="st2" d="M74,11.2l-2-3.3c-0.1,0-0.3,0-0.4,0h-2.5v3.3h-2.1V0h4.7
				c1.5,0,2.5,0.4,3.3,1.1c0.8,0.7,1.2,1.6,1.2,2.8c0,0.9-0.1,1.6-0.5,2.3c-0.4,0.7-0.9,1.1-1.6,1.3l2.4,3.7H74z M69.2,6h2.5
				c0.8,0,1.5-0.1,1.9-0.5c0.4-0.4,0.7-0.9,0.7-1.6S74,2.7,73.6,2.3c-0.4-0.4-1.1-0.5-1.9-0.5h-2.5V6z"/>
			<path id="path4691" inkscape:connector-curvature="0" class="st2" d="M77.6,0h2.1v11.2h-2.1V0z"/>
			<path id="path4693" inkscape:connector-curvature="0" class="st2" d="M80.3,0h9.2v1.9H86v9.3h-2.1V1.9h-3.5V0H80.3z"/>
			<path id="path4695" inkscape:connector-curvature="0" class="st2" d="M98.9,0l-4.1,7.6v3.6h-2.1V7.6L88.5,0h2.1l3.1,5.2L96.8,0
				H98.9z"/>
		</g>
	</g>
	
		<path id="path4728_1_" inkscape:connector-curvature="0" sodipodi:nodetypes="ccccccccccccccccccccccccccccccccccccccccccccccccccccscccccccccccccccccccccccccccccccccccccccccccccccccccccccccccccccccccccccccccccccccccccccccccccccccccccccccccccccccccccccccccccscccccccccccccccccccccccccccccccccccccccccccccccccccccccccccccccccccccccccccccccccccccccccccccccccccccccccccccccccccccccccccc" class="st0" d="
		M128.3,39.5c-1.3-0.4-2.9-0.4-4.3,0c-1.9,0.5-2.1,0.9-3.2,4.8c-0.5,1.7-0.9,3.7-1.2,4.3c-0.3,0.5-0.5,1.6-0.5,2.1
		c-0.1,0.5-0.4,1.6-0.5,2.4c-0.7,2.4-1.5,5.3-1.5,5.5c0,0.1-0.1,0.9-0.5,1.7c-0.1,0.8-0.5,2.1-0.8,2.8c-0.1,0.7-0.7,2.8-1.2,4.5
		c-0.5,1.7-0.9,3.3-0.9,3.3s-0.1,0.4-0.1,0.9c-0.3,0.9-1.5,5.7-2.1,8.9c-0.4,1.9-0.5,3.7-0.5,5.3c0.1,0.9,0.7,2.4,1.3,3.2
		c0.5,0.7,0.9,0.9,1.7,1.1c0.9,0.1,1.2,0.1,2.4-0.1c1.1-0.3,1.5-0.5,2.1-1.2c1.3-1.2,1.3-1.3,3.3-8.1c0.8-2.9,1.6-5.7,1.7-6.1
		c0-0.1,0.3-0.9,0.5-1.9c0.3-0.9,0.5-1.7,0.5-1.7c0-0.1,0.3-0.9,0.5-2.1c0.3-0.9,0.8-2.8,1.1-3.9s0.8-2.8,1.1-3.9
		c0.3-0.9,0.5-1.9,0.5-2c0-0.1,0.1-0.9,0.5-1.9c1.2-4,3.3-12.1,3.6-13.2c0.1-0.5,0.1-1.1-0.1-2c-0.3-1.1-0.4-1.3-1.2-2
		C129.9,40.2,129.1,39.8,128.3,39.5L128.3,39.5z M53.6,19.6c-1.2-0.4-2.5-0.4-3.9-0.1c-1.1,0.3-1.3,0.4-1.9,0.9s-0.8,1.1-1.7,4.5
		c-0.5,2.1-1.2,4.1-1.3,4.5c-0.1,0.3-0.3,1.2-0.5,2c-0.1,0.8-0.5,1.6-0.5,1.7s-0.1,0.8-0.3,1.2c-0.1,0.8-1.3,4.5-2.4,8.7
		C40.8,44.2,40.3,46,40,47c-0.3,0.9-0.5,2.1-0.7,2.7c-0.1,0.4-0.5,1.9-0.8,3.2C36.4,61.4,35.9,64,36,66.3c0.1,1.2,0.1,1.5,0.7,2.4
		c0.5,1.1,1.5,1.9,2.8,2.1c0.9,0.1,1.2,0.1,2.1-0.1c2-0.7,3.7-2.7,4.1-4.7c0.1-0.4,0.3-1.3,0.5-2.3c0.1-0.8,0.5-1.7,0.5-2.1
		c0-0.4,0.3-1.3,0.5-2.1c0.1-0.8,0.7-2.5,1.1-3.7c0.3-1.3,0.8-2.9,1.1-3.9c0.1-0.9,0.5-2.1,0.8-2.9c0.4-1.3,0.5-1.7,1.3-4.7
		c0.3-1.1,0.7-2.4,0.8-2.9c0.1-0.4,0.4-1.3,0.5-2.1c0.1-0.7,0.4-1.3,0.4-1.3s0.1-0.9,0.5-2c0.3-1.1,0.8-2.8,1.1-3.9
		c0.3-1.1,0.7-2.7,0.9-3.6c1.2-4.4,1.3-5.7,0.5-7.1C55.9,20.7,54.8,20,53.6,19.6L53.6,19.6z M66.4,25.4l-0.3,0.9
		c-0.9,3.5-1.5,5.3-1.5,5.3s-0.3,1.1-0.5,2.3c-0.7,2.4-1.3,4.5-2.1,7.7c-0.3,1.1-0.7,2.7-0.9,3.6c-0.1,0.9-0.5,2.1-0.7,2.8
		c-0.1,0.5-0.4,1.3-0.5,1.7c-0.1,0.3-0.4,1.3-0.5,2.1c-0.1,0.9-0.5,2-0.7,2.5c-0.5,1.6-1.3,5.1-1.3,5.2c0,0-0.1,0.9-0.5,2
		c-0.3,1.1-0.5,2-0.5,2.1c0,0-0.1,0.5-0.1,0.9c-0.3,0.8-1.3,4.5-1.7,6.5l0,0c-0.1,0.5-0.1,1.1-0.1,1.2c0.1,0.1,0.9,0.4,1.7,0.7
		c0.9,0.3,2.5,0.7,3.6,0.9c0.9,0.3,2.8,0.8,4,1.1c1.2,0.3,2.1,0.5,2.1,0.5s0.8,0.1,1.6,0.4c1.3,0.4,3.3,0.9,5.7,1.6
		c2.4,0.5,4.4,1.2,6.3,1.7c1.2,0.3,2.1,0.5,2.3,0.5c0,0,0.9,0.1,2.1,0.5c1.1,0.3,2.4,0.7,2.8,0.8c0.4,0.1,1.6,0.4,2.8,0.8
		c1.2,0.3,2.9,0.8,3.7,0.9c0.8,0.1,2.1,0.5,2.8,0.8c0.7,0.1,1.3,0.4,1.3,0.4c0.1,0,0.7,0.1,1.3,0.4c0.7,0.1,1.3,0.4,1.3,0.3
		c0-0.1,0.9-3.3,1.3-4.9c0.1-0.7,0.5-1.9,0.7-2.5c0.1-0.7,0.4-1.3,0.4-1.5c0,0,0.1-0.8,0.4-1.7c0.5-1.7,1.3-5.1,2.3-8.3
		c0.3-1.1,0.7-2.7,0.9-3.6c0.1-0.9,0.5-2.1,0.7-2.8c0.1-0.5,0.4-1.3,0.5-1.7c0.1-0.4,0.4-1.3,0.5-2.1c0.1-0.8,0.5-2,0.7-2.5
		c0.5-1.7,1.3-5.1,1.3-5.2c0,0,0.3-1.1,0.5-2.3c0.3-1.2,0.8-2.9,1.1-3.7c0.5-2.3,1.1-4.1,0.9-4.3c-0.5-0.1-4.1-1.2-4.1-1.2
		s-0.9-0.1-2-0.5c-1.1-0.4-2.9-0.8-4.1-1.1c-1.2-0.3-2.9-0.8-3.9-1.1c-0.9-0.3-1.7-0.5-1.7-0.5s-0.9-0.1-2.1-0.5s-2-0.5-2.1-0.5
		c0,0-0.5-0.1-1.1-0.3c-0.5-0.1-1.5-0.4-2.1-0.5c-0.5-0.1-1.7-0.5-2.8-0.7c-0.9-0.3-2.5-0.7-3.7-0.9c-2.9-0.8-5.3-1.3-7.7-2.1
		c-1.2-0.3-2.3-0.5-2.4-0.5c-0.1,0-2-0.5-5.1-1.3L66.4,25.4z M118.8,41.5c-0.4-0.1-1.5-0.4-2.4-0.5c-0.9-0.1-1.7-0.4-1.7-0.5
		c-0.1-0.1-0.4,0.4-0.7,1.6c-0.7,2.7-0.8,2.9-1.3,4.9c-0.3,1.1-0.5,2-0.5,2s-0.1,0.9-0.5,2.1c-0.3,1.1-0.5,2-0.5,2.1
		c0,0.1-0.1,0.9-1.5,5.6c-0.3,1.2-0.5,2.3-0.5,2.3c0,0.1-0.9,4.1-1.6,6.1c-0.1,0.5-0.4,1.5-0.5,2.1c-0.1,0.9-2.9,11.2-3.3,12.9l0,0
		c-0.1,0.4-0.1,0.9-0.1,0.9c0,0.1,0.5,0.3,3.5,1.1c0.9,0.1,1.7,0.4,1.7,0.4c0.1-0.1,0.9-3.6,1.1-4.5c0.1-0.5,0.5-1.9,0.7-2.9
		c0.5-2.3,2.3-8.5,2.5-9.9c0.1-0.5,0.4-1.6,0.5-2.3c0.1-0.7,0.4-1.3,0.4-1.3c0-0.1,0.1-0.9,0.5-2.1s0.5-2,0.5-2.1
		c0-0.1,0.1-0.9,0.5-2.1c0.3-1.1,0.5-2,0.5-2.1c0,0,0.1-0.5,0.3-1.1c0.1-0.5,0.5-1.9,0.8-2.9c0.3-1.1,0.8-2.9,1.1-4.3
		c0.3-1.3,0.8-2.9,0.9-3.7l0.4-1.5L118.8,41.5z M59.6,25.9c-0.7-0.1-0.9-0.1-0.9,0.1c-0.3,0.9-2.1,7.7-2.1,7.7s-0.1,0.8-0.4,1.7
		c-0.1,0.9-0.7,2.5-0.9,3.7c-0.3,1.1-0.8,2.9-1.1,4c-0.3,1.1-0.5,2.1-0.7,2.5c-0.1,0.3-0.3,1.3-0.5,2.1c-0.1,0.8-0.5,1.7-0.5,2.3
		c-0.1,0.9-0.9,3.9-2.5,9.7c-0.3,0.9-0.8,2.9-1.2,4.5c-0.4,1.3-0.8,2.9-0.9,3.3c-0.1,0.4-0.1,0.8-0.1,0.9s0.4,0.3,0.9,0.4
		c0.5,0.1,1.6,0.4,2.5,0.7c0.9,0.3,1.7,0.4,1.7,0.4c0.1,0,0.8-2.7,1.3-4.9c0.1-0.5,0.5-2,0.8-3.2c0.3-1.2,0.8-2.9,0.9-3.9
		s0.7-2.4,0.9-3.3c0.3-0.9,0.5-1.7,0.5-1.9c0,0,0.1-0.9,0.5-2.1c0.3-1.1,0.5-2,0.5-2.1s0.1-0.9,0.5-2.1c0.3-1.1,0.5-2,0.5-2.1
		c0-0.1,0.1-0.9,0.5-1.9c0.3-0.9,0.5-1.7,0.5-1.9c0-0.1,0.1-0.5,0.3-1.2c0.1-0.7,0.5-2.1,0.9-3.2c0.3-1.2,0.8-3.1,1.1-4.1
		c1.2-4.5,1.2-4.8,0.9-4.9C63.5,26.8,60.8,26.2,59.6,25.9L59.6,25.9z M69.8,79.4l-0.1,0.1c-0.3,0.9-0.5,2-0.5,2
		c0,0.1-0.3,1.3-0.7,2.4c-0.1,0.4-0.1,0.7-0.1,0.8c0,0-0.1,0.4-0.1,0.8c-0.1,0.4-0.3,1.1-0.5,1.6c-0.1,0.4-0.3,0.9-0.4,1.3
		c-0.1,0.3-0.1,0.8-0.3,0.9c0,0.1-0.1,0.5-0.3,0.9c-0.1,0.4-0.3,0.9-0.4,1.3c-0.1,0.4-0.3,1.1-0.5,1.6c-0.1,0.5-0.3,1.2-0.5,1.6
		c-0.1,0.8-0.7,2.3-0.9,3.3c-0.1,0.3-0.3,0.9-0.4,1.3c-0.1,0.4-0.3,1.3-0.5,1.7c-0.5,1.9-0.5,2.1-0.8,2.9c-0.1,0.9-0.3,1.1-0.5,2
		c-0.1,0.4-0.3,0.9-0.4,1.3c-0.4,1.6-0.5,2-0.8,2.7c-0.1,0.4-0.1,0.7-0.1,0.7s0.7,0.1,1.5,0.5c2,0.5,5.3,1.3,6.1,1.7
		c0.4,0.1,1.7,0.5,3.2,0.9c1.3,0.4,2.5,0.7,2.5,0.7s0.1-0.5,0.7-2.3c0.1-0.4,0.3-1.1,0.4-1.5c0.1-0.4,0.1-0.8,0.1-0.8
		s0.1-0.4,0.1-0.9c0.1-0.4,0.5-1.7,0.5-1.7c0.1-0.5,0.4-1.2,0.5-1.5c0.1-0.3,0.1-0.5,0.1-0.5s0.3-1.2,0.5-2.1
		c0.1-0.1,0.1-0.5,0.1-0.8c0.1-0.3,0.1-0.8,0.3-1.1c0.1-0.4,0.3-0.9,0.4-1.3c0.1-0.4,0.3-1.2,0.5-1.7c0.1-0.5,0.4-1.3,0.5-1.7
		c0.1-0.4,0.3-0.9,0.4-1.3c0.1-0.4,0.1-0.7,0.3-0.9c0-0.1,0.1-0.5,0.1-0.8c0.1-0.1,0.1-0.5,0.1-0.7c0.1-0.4,0.4-1.7,0.7-2.5
		c0.1-0.4,0.1-0.7,0.1-0.7s0-0.3,0.1-0.5c0.1-0.3,0.3-1.1,0.5-1.7c0.1-0.7,0.4-1.5,0.5-1.7c0.1-0.3,0.1-0.5,0.1-0.5s0.1-0.3,0.1-0.7
		c0.1-0.3,0.1-0.8,0.3-0.9v-0.1l-0.5-0.1c-0.3-0.1-1.1-0.3-1.7-0.5c-0.7-0.3-1.9-0.5-2.9-0.8c-3.7-0.9-5.5-1.5-6.1-1.7
		c-0.4-0.1-0.9-0.3-1.3-0.4L69.8,79.4z M76.7,117.4c-1.2-0.3-2.9-0.8-3.7-0.9c-0.9-0.1-1.7-0.4-1.7-0.4c-0.1,0-0.7-0.1-1.5-0.3
		c-1.7-0.5-5.6-1.5-6.9-1.7c-2.9-0.7-6.1-1.5-6.3-1.6c-0.1-0.1-0.3-0.1-0.3-0.1c-0.1,0-0.7,1.9-0.8,2.5c0,0.1-0.3,1.3-0.7,2.7
		l-0.5,2.5l0.5,0.1c0.3,0.1,0.5,0.1,0.5,0.1s1.2,0.1,2.4,0.5c4.3,1.1,4.9,1.3,7.3,1.9c3.3,0.8,3.2,0.8,4.5,1.2
		c0.7,0.1,1.6,0.4,2.1,0.5s1.2,0.3,1.5,0.4c0.5,0.1,3.9,0.9,4,0.9c0,0,0.1-0.7,0.4-1.3c0.1-0.8,0.5-2.5,0.9-3.7
		c0.3-1.3,0.5-2.4,0.5-2.5C78.8,118.2,77.9,117.8,76.7,117.4L76.7,117.4z M59.4,123.2c-1.2-0.3-2.1-0.5-2.3-0.5
		c-0.1,0.1-0.4,1.1-1.3,4.5c-0.3,1.2-0.5,2.1-1.7,6.3c-0.3,1.2-0.7,2.5-0.8,3.1c-0.5,2-0.9,3.7-1.3,5.2c-0.1,0.8-0.4,1.6-0.4,1.6
		s-0.1,0.7-0.4,1.5c-0.1,0.8-0.4,1.5-0.4,1.5s-0.1,0.8-0.4,1.6c-0.3,0.9-0.5,1.6-0.4,1.6c0,0-0.1,0.7-0.4,1.5
		c-0.1,0.8-0.4,1.5-0.4,1.7c0,0.1-0.1,0.5-0.3,1.1c-0.1,0.4-0.4,1.2-0.5,1.7l15.6,4.4c0.3-0.9,2.1-7.3,2.3-8.1
		c0.1-0.8,0.4-1.6,0.4-1.6s0.1-0.5,0.3-1.3c0.9-3.2,1.3-4.9,1.3-4.9s0.1-0.8,0.4-1.6c0.3-0.9,0.5-1.6,0.4-1.6c0,0,0.1-0.9,0.5-1.9
		c0.9-3.6,1.2-4.4,1.2-4.5c0,0,0.1-0.8,0.4-1.6c0.3-0.9,0.5-1.6,0.4-1.6c0,0,0.1-0.5,0.3-1.2c0.4-1.3,0.9-3.2,0.8-3.3
		c-0.1,0-3.3-0.9-5.6-1.5C62.3,124,61.5,123.6,59.4,123.2L59.4,123.2z"/>
	<path id="rect5205-3-6_1_" inkscape:connector-curvature="0" class="st0" d="M3.9,139.5V171c0,11.6,9.3,20.9,20.9,20.9h146.5
		c11.6,0,20.9-9.3,20.9-20.9v-31.5H3.9z"/>
	<text transform="matrix(1 0 0 1 13.4121 186.3078)" class="st5 st8 st9">BESTIMMT</text>
</g>
</svg>
