<?xml version="1.0" encoding="utf-8"?>
<!-- Generator: Adobe Illustrator 22.0.1, SVG Export Plug-In . SVG Version: 6.00 Build 0)  -->
<svg version="1.1"
	 id="svg8" inkscape:version="0.92.1 r15371" sodipodi:docname="equality.svg" xmlns:cc="http://creativecommons.org/ns#" xmlns:dc="http://purl.org/dc/elements/1.1/" xmlns:inkscape="http://www.inkscape.org/namespaces/inkscape" xmlns:rdf="http://www.w3.org/1999/02/22-rdf-syntax-ns#" xmlns:sodipodi="http://sodipodi.sourceforge.net/DTD/sodipodi-0.dtd" xmlns:svg="http://www.w3.org/2000/svg"
	 xmlns="http://www.w3.org/2000/svg" xmlns:xlink="http://www.w3.org/1999/xlink" x="0px" y="0px" viewBox="0 0 200 200"
	 style="enable-background:new 0 0 200 200;" xml:space="preserve">
<style type="text/css">
	.st0{enable-background:new    ;}
	.st1{fill:#EEEEEE;}
	.st2{fill:#222222;}
	.st3{fill:#F44336;}
	.st4{fill:#FFFFFF;}
	.st5{font-family:'Quadriga';}
	.st6{font-size:29.2px;}
	.st7{font-family:'Montserrat-Regular';}
	.st8{font-size:30.406px;}
</style>
<defs>
	
	
		<inkscape:path-effect  bendpath1="m -199.08406,108.42369 h 7.0057" bendpath2="m -192.07836,108.42369 v 6.75242" bendpath3="m -199.08406,115.17611 h 7.0057" bendpath4="m -199.08406,108.42369 v 6.75242" effect="envelope" id="path-effect4658" is_visible="true" xx="true" yy="true">
		</inkscape:path-effect>
	
		<inkscape:path-effect  bendpath="m -192.00142,114.60623 c 2.12577,-0.53066 4.48261,0.85111 7.0057,0" bendpath-nodetypes="cc" effect="bend_path" id="path-effect4656" is_visible="true" prop_scale="1" scale_y_rel="false" vertical="false">
		</inkscape:path-effect>
	<inkscape:path-effect  effect="bounding_box" id="path-effect4654" is_visible="true" linkedpath="" visualbounds="false">
		</inkscape:path-effect>
</defs>
<sodipodi:namedview  bordercolor="#666666" borderopacity="1.0" fit-margin-bottom="0" fit-margin-left="0" fit-margin-right="0" fit-margin-top="0" id="base" inkscape:current-layer="layer1" inkscape:cx="56.450488" inkscape:cy="105.07799" inkscape:document-units="px" inkscape:object-nodes="false" inkscape:pageopacity="0.0" inkscape:pageshadow="2" inkscape:window-height="1016" inkscape:window-maximized="1" inkscape:window-width="1920" inkscape:window-x="0" inkscape:window-y="27" inkscape:zoom="0.70710678" pagecolor="#ffffff" showgrid="false" showguides="false" units="px">
	</sodipodi:namedview>
<text transform="matrix(1 0 0 1 -1231.6602 -258.1348)" class="st1 st7" style="font-size:32px;">ORD</text>
<g>
	<path id="rect4485" class="st2" d="M15,0h170c8.3,0,15,6.7,15,15v170c0,8.3-6.7,15-15,15H15c-8.3,0-15-6.7-15-15V15
		C0,6.7,6.7,0,15,0z"/>
	<path id="rect4487" class="st3" d="M20,10h160c5.5,0,10,4.5,10,10v160c0,5.5-4.5,10-10,10H20c-5.5,0-10-4.5-10-10V20
		C10,14.5,14.5,10,20,10z"/>
	<path id="path4521" inkscape:connector-curvature="0" class="st2" d="M85.1,20.4c-3.2,0-6.5,1.7-8.1,5.2c-0.6,1.3-0.7,2-0.7,3.8
		s0.2,2.5,0.8,3.7c0.8,1.5,2.1,3,3.5,3.9c0.6,0.3,1.3,0.6,2.1,0.8c0.3,0.1,0.6,0.2,0.8,0.2c0,0.2,0,0.6,0,1c0,1,0.1,2.5,0.1,4.3
		c0,2.7,0,4-0.1,4.8c-0.1,0-0.1,0-0.1,0c-0.4-0.1-1-0.3-1.7-0.4c-1.4-0.4-3.2-0.9-5.1-1.6c-7.5-2.4-12-3.2-15.3-2.4
		c-1.2,0.3-2.2,0.7-3.4,1.6c-1.2,0.9-2.6,2.2-4.9,4.4c-1.8,1.7-3,2.7-3.9,3.3s-1.6,0.7-2.6,0.7c-0.6,0-0.8-0.1-0.7,0
		c0-0.1,0-0.2,0-0.5v-1.8h-2.3h-2.3v1c-0.2-0.1-0.4-0.2-0.6-0.3c-0.7-0.4-1.6-0.9-2-1.3c-0.5-0.4-0.9-0.7-1.1-0.9
		c-0.3-0.2-0.4-0.4-0.9-0.5c-0.1,0-0.1,0-0.2,0s-0.3,0-0.3,0s-0.3,0.2-0.4,0.2l-0.1,0.1l-0.1,0.1c-0.2,0.4-0.2,0.6-0.2,0.7
		c0,0.3,0.1,0.5,0.1,0.7c0.5,2.9,2.6,5.8,5.2,7.2l0.6,0.3v0.8V60h-0.9h-2.5l-1.3,4c-0.6,1.8-1.9,5.8-2.9,8.8s-3,9.1-4.4,13.4
		s-3.4,10.4-4.4,13.3l-1.6,4.8h-3.5h-6.2l2.2,2.6c4.5,5.3,9.7,8.1,18.1,9.7c2.8,0.6,3.6,0.6,9,0.6s6.2,0,9-0.6
		c7.8-1.6,13.7-4.6,17.6-9.2l2.5-2.9l-5.7-0.2l-3-0.1l-0.3-0.9c-0.3-0.8-1-3.2-1.7-5.3c-0.7-2-1.8-5.7-2.6-8
		c-0.7-2.4-1.5-4.8-1.8-5.5c-0.2-0.6-1.2-3.8-2.3-7c-1-3.2-2.7-8.3-3.7-11.4l-2-6.2l-2.5-0.1h-0.9v-0.1v-0.1l1.9-0.1
		c0.8,0,1.6-0.1,2.3-0.2c0.7-0.1,1.1-0.1,1.6-0.2c2.3-0.7,4.2-1.6,6.9-3.4c1.9-1.2,3-1.9,3.8-2.2s1.4-0.3,2.6-0.3
		c2.1,0.1,3.2,0.6,7.6,3c1.6,0.9,3.4,1.9,4.2,2.3c1.9,1,5.1,2.1,6.8,2.3h0.3l-0.2,11.7l-0.1,12.3l-2.3,4.7l-2.5,5l0.2,14.7l0.1,13.5
		h-5.7h-7.6v3.6v2.3l-2.9,4.8c-1.7,2.8-3.8,6.4-4.8,8s-1.9,3.1-2.2,3.6l-1,2h31.3c8.2,0,15.6,0,21-0.1c2.7,0,4.9,0,6.4-0.1
		c0.8,0,1.4,0,1.8,0c0.2,0,0.4,0,0.5,0s0.1,0,0.2,0h0.1l0.2-0.1l0.3-0.2l0.3-0.7v-0.2v-0.1c0-0.1,0-0.1,0-0.1c0-0.1-0.1-0.1-0.1-0.1
		c0-0.1-0.1-0.2-0.1-0.2c-0.1-0.2-0.2-0.4-0.4-0.6c-0.3-0.5-0.8-1.2-1.3-1.9c-1-1.4-2.4-3.2-3-4.1c-0.6-0.9-1.4-1.9-1.6-2.2
		s-1.7-2.3-3.2-4.4l-2.6-3.6v-2.2v-3.4l-6.7-0.1h-4.8l-0.1-13.8l-0.1-15L92,92.7c-0.2-0.3-1.3-2.6-2.3-4.8l-1.8-3.7v-12V60.8
		l0.7-0.1c2.8-0.6,5.1-1.6,11.5-5.2c3.6-2,5.6-2.6,7.6-2.3c1.1,0.2,2.2,0.7,5.5,2.8c3.6,2.4,6.8,3.5,10.3,3.5c0.6,0,0.7,0,0.8,0
		c0,0.1,0,0.2,0,0.3c-0.1,0-0.3,0-1,0h-2.4l-0.7,1.9c-0.3,0.8-1.6,4.9-3,9.2s-3,9.3-3.6,11.1c-0.6,1.8-2.2,6.7-3.6,11.1
		c-1.4,4.3-2.9,8.8-3.2,9.8l-0.4,1.2l-3.4,0.1l-5.9,0.1l1.7,2.3c2.8,3.7,7.8,7,13.1,8.7c7.1,2.3,16.5,2.6,24.2,1
		c3.4-0.7,5.6-1.5,8.7-3c3.5-1.7,5.9-3.6,8.6-6.9l1.9-2.3h-5.7h-3l-0.2-0.7c-0.2-0.7-1.1-3.3-1.8-5.6c-0.7-2.4-1.5-4.8-1.8-5.5
		c-0.2-0.6-1-2.9-1.6-5.1c-0.7-2.1-1.5-4.7-1.9-5.8c-0.6-1.9-2.7-8.6-5.5-17.1l-1.4-4.5h-2.5H129v-0.3c0-0.3,0-0.4,0-0.5
		c3.5-1.2,6.3-4.3,6.9-7.9l0.7-3.6l-3.3,2.7c-0.5,0.4-1.6,1.1-2.6,1.6c-0.7,0.4-1.2,0.6-1.7,0.8v-1.4h-2.3h-2.3V53
		c0,0.3,0,0.4,0,0.5c-0.1,0-0.2,0-0.4,0c-0.8-0.2-1.4-0.4-2.3-1s-2-1.6-3.6-3.2c-2.6-2.5-4.2-4-5.8-4.9c-1.6-0.9-3.1-1.1-5.1-1.1
		c-3.6,0-6,0.5-12.7,2.7c-1.9,0.6-3.8,1.2-5.3,1.6c-0.7,0.2-1.4,0.4-1.8,0.5c0-0.2,0-0.4,0-0.7c0-1.1,0-2.6,0-4.3v-5.4l0.3-0.1
		c2.5-0.7,4.3-2.4,5.5-4.9c0.6-1.2,0.7-2,0.7-3.6s-0.2-2.4-0.7-3.6C91.6,22.1,88.3,20.4,85.1,20.4L85.1,20.4z M124.3,64.6
		c0,0.5,0.1,1.3,0.1,2.6c0,2.8,0.1,7.9,0.1,17c0,5.6,0,10.7,0,14.4c0,1.9,0,3.4,0,4.5c0,0.5,0,0.8,0,1c-0.2,0-0.2,0-0.5,0
		c-1,0-2.9,0.1-6.2,0.1c-2.8,0-4.7,0-5.8-0.1c-0.2,0-0.3,0-0.4,0c0-0.1,0-0.1,0-0.1c0.2-0.7,0.5-1.5,0.8-2.5
		c1.3-3.8,2.6-7.9,4.5-13.8c0.9-2.8,2.7-8.4,4.3-13.4C122.8,69.3,124.2,65.1,124.3,64.6z M41.1,65l0.1,19.3l0.1,19.9h-6.5
		c-2,0-3.9,0-5.3,0c-0.5,0-0.8,0-1.1,0c0-0.1,0.1-0.2,0.1-0.4c0.3-0.9,0.7-2.1,1.1-3.4c0.9-2.7,2.7-8.4,4.2-12.7
		c1.4-4.3,3.4-10.3,4.3-13.3c1-3,2.1-6.5,2.6-7.8C40.8,65.9,40.9,65.5,41.1,65L41.1,65z M45.9,65.1c0.1,0.2,0.1,0.2,0.2,0.4
		c0.5,1.4,1.4,4.2,3.1,9.4c1,3.1,2.6,8.2,3.6,11.3c1,3.1,2.6,8.2,3.6,11.3c1,3.1,1.9,6,2.1,6.6c-0.3,0-0.6,0-1,0c-1.3,0-3.1,0-5.2,0
		c-3.2,0-5.1,0-6.1-0.1c-0.3,0-0.3,0-0.5,0c0-0.3,0-0.6,0-1c0-1.1,0-2.6,0-4.5c0-3.7,0-8.8,0-14.4c0-11,0-16.2,0.1-18.6
		C45.9,65.2,45.9,65.3,45.9,65.1L45.9,65.1z M129.1,65.1C129.1,65.2,129.1,65.1,129.1,65.1c0.4,1.2,1.2,3.4,2.5,7.8
		c0.6,2,2.5,7.7,4.9,15.4c1.8,5.5,3.1,9.6,4,12.4c0.4,1.4,0.8,2.5,1,3.2c0,0.1,0,0.2,0.1,0.2c-0.1,0-0.1,0-0.2,0c-1,0-2.9,0.1-6,0.1
		H129V84.4c0-11.3,0-16.6,0.1-19C129.1,65.3,129.1,65.3,129.1,65.1L129.1,65.1z"/>
	<path id="rect5205-3" inkscape:connector-curvature="0" class="st2" d="M5.5,140v31.5c0,11.6,9.4,21,21,21h147c11.6,0,21-9.4,21-21
		V140H5.5z"/>
	<text transform="matrix(1 0 0 1 6.5001 181)" class="st4 st5 st6">SOZIALISTISCH</text>
</g>
<g>
	<g id="g4561" transform="matrix(2,0,0,2,-124.92114,98.02405)">
		<path id="rect4485_1_" class="st2" d="M70.7-48.9h84.3c4.1,0,7.4,3.3,7.4,7.4v84.3c0,4.1-3.3,7.4-7.4,7.4H70.7
			c-4.1,0-7.4-3.3-7.4-7.4v-84.3C63.3-45.5,66.6-48.9,70.7-48.9z"/>
		<path id="rect4487_1_" class="st3" d="M73.2-43.9h79.3c2.8,0,5,2.2,5,4.9v79.3c0,2.8-2.2,4.9-5,4.9H73.2c-2.8,0-5-2.2-5-4.9V-39
			C68.2-41.6,70.4-43.9,73.2-43.9z"/>
		<path id="path4521_2_" class="st2" d="M105.5-38.7c-1.6,0-3.2,0.8-4,2.5c-0.3,0.7-0.4,1.1-0.4,1.9c0,0.9,0.1,1.2,0.4,1.9
			c0.4,0.8,1.1,1.5,1.7,1.9c0.3,0.1,0.7,0.3,1.1,0.4c0.1,0,0.3,0.1,0.4,0.1c0,0.1,0,0.3,0,0.5c0,0.5,0,1.2,0,2.1c0,1.3,0,2,0,2.4
			l0,0c-0.3,0-0.5-0.1-0.8-0.3c-0.7-0.1-1.6-0.4-2.5-0.8c-3.7-1.2-5.9-1.6-7.5-1.2c-0.7,0.1-1.1,0.4-1.7,0.8
			c-0.5,0.4-1.3,1.1-2.4,2.2c-0.9,0.8-1.5,1.3-2,1.6c-0.5,0.3-0.8,0.4-1.3,0.4c-0.3,0-0.4,0-0.4,0s0-0.1,0-0.3v-0.9H85h-1.1v0.5
			c-0.1,0-0.1-0.1-0.3-0.1c-0.4-0.3-0.8-0.5-1.1-0.7c-0.3-0.3-0.4-0.4-0.5-0.4c-0.1,0-0.1-0.1-0.4-0.3c0,0,0,0-0.1,0h-0.1l-0.1,0.1
			l-0.1,0.1l0,0C81-24.1,81-23.9,81-23.8s0,0.3,0,0.4c0.3,1.5,1.3,2.9,2.6,3.6l0.3,0.1v0.4v0.3h-0.4h-1.2l-0.7,2
			c-0.3,0.9-0.9,2.9-1.5,4.4s-1.5,4.5-2.1,6.6C77.5-4,76.4-0.9,76,0.5l-0.8,2.4h-1.7h-3l1.1,1.3c2.2,2.6,4.9,4,9,4.9
			C82,9.4,82.2,9.4,85,9.4c2.6,0,3,0,4.5-0.3c3.8-0.8,6.7-2.2,8.7-4.6L99.4,3l-2.8-0.1h-1.5L95,2.5c-0.1-0.4-0.5-1.6-0.8-2.6
			c-0.3-1.1-0.9-2.8-1.3-4c-0.4-1.2-0.8-2.4-0.9-2.8c-0.1-0.3-0.7-1.9-1.1-3.4c-0.5-1.6-1.3-4.1-1.9-5.7l-0.9-3H87h-0.4l0,0l0,0h0.9
			c0.4,0,0.8,0,1.2-0.1c0.4,0,0.5,0,0.8-0.1c1.2-0.3,2.1-0.8,3.4-1.7c0.9-0.7,1.5-0.9,1.9-1.1c0.4-0.1,0.7-0.1,1.3-0.1
			c1.1,0,1.6,0.3,3.8,1.5c0.8,0.4,1.7,0.9,2.1,1.2c0.9,0.5,2.5,1.1,3.4,1.2h0.1l-0.1,5.8l-0.1,6.1l-1.9,2L102.3-2l0.1,7.3l0.1,6.7
			h-2.8h-3.7v1.7v1.2l-1.5,2.4c-0.8,1.3-1.9,3.2-2.4,4c-0.5,0.8-0.9,1.6-1.1,1.9l-0.5,0.9h15.5c4.1,0,7.8,0,10.4,0
			c1.3,0,2.4,0,3.2,0c0.4,0,0.7,0,0.9,0c0.1,0,0.1,0,0.3,0c0,0,0,0,0.1,0l0,0h0.1l0.1-0.1l0.1-0.4v-0.1l0,0l0,0l0,0v-0.1
			c0-0.1-0.1-0.1-0.3-0.3c-0.1-0.3-0.4-0.5-0.7-0.9c-0.5-0.7-1.2-1.6-1.5-2s-0.7-0.9-0.8-1.1c-0.1-0.1-0.8-1.2-1.6-2.2l-1.3-1.7V14
			v-1.7h-3.3h-2.4V5.4V-2l-0.3-0.5c-0.1-0.1-0.7-1.3-1.2-2.4l-1.5-2.2v-5.9v-5.7h0.4c1.5-0.3,2.5-0.8,5.7-2.5
			c1.9-1.1,2.8-1.3,3.8-1.2c0.5,0.1,1.1,0.4,2.8,1.5c1.9,1.2,3.4,1.7,5.2,1.7c0.3,0,0.4,0,0.4,0v0.1c-0.1,0-0.1,0-0.5,0h-1.2
			l-0.4,0.9c-0.1,0.4-0.8,2.4-1.5,4.5s-1.5,4.6-1.9,5.6c-0.3,0.9-1.1,3.3-1.9,5.6c-0.7,2.1-1.5,4.4-1.6,4.9l-0.3,0.7h-1.7h-2.9
			l0.8,1.2c1.3,1.9,3.8,3.4,6.5,4.4c3.6,1.1,8.2,1.3,12,0.5c1.7-0.4,2.8-0.8,4.4-1.5c1.7-0.8,2.9-1.9,4.2-3.4l0.9-1.1h-2.8h-1.5
			l-0.1-0.4c-0.1-0.4-0.5-1.6-0.9-2.8c-0.4-1.2-0.8-2.4-0.9-2.8c-0.1-0.3-0.5-1.5-0.8-2.5c-0.4-1.1-0.8-2.4-0.9-2.9
			c-0.3-0.9-1.3-4.2-2.6-8.5l-0.7-2.2h-1.2h-0.4v-0.1c0-0.1,0-0.3,0-0.3c1.7-0.7,3.2-2.1,3.4-4l0.3-1.9l-1.6,1.3
			c-0.3,0.3-0.8,0.5-1.3,0.8c-0.4,0.1-0.7,0.3-0.9,0.4v-0.7h-1.1H125v0.9c0,0.1,0,0.1,0,0.3c0,0-0.1,0-0.3,0
			c-0.4-0.1-0.7-0.3-1.2-0.5c-0.4-0.3-1.1-0.8-1.9-1.6c-1.3-1.2-2.1-2-2.9-2.4c-0.8-0.4-1.6-0.5-2.5-0.5c-1.7,0-3,0.3-6.3,1.3
			c-0.9,0.3-1.9,0.5-2.6,0.8c-0.4,0.1-0.7,0.1-0.9,0.3c0-0.1,0-0.1,0-0.3c0-0.5,0-1.3,0-2.1v-2.6h0.1c1.2-0.4,2.1-1.2,2.8-2.4
			c0.3-0.5,0.4-0.9,0.4-1.7s-0.1-1.2-0.4-1.9C108.7-37.9,107.1-38.7,105.5-38.7z M124.9-16.8c0,0.3,0,0.7,0,1.3c0,1.5,0,4,0,8.5
			c0,2.8,0,5.3,0,7.1c0,0.9,0,1.7,0,2.2c0,0.3,0,0.4,0,0.5c-0.1,0-0.1,0-0.3,0c-0.5,0-1.5,0-3,0c-1.5,0-2.4,0-2.9,0
			c-0.1,0-0.1,0-0.3,0c0,0,0,0,0-0.1c0.1-0.3,0.3-0.8,0.4-1.2c0.7-1.9,1.3-4,2.2-6.9c0.4-1.3,1.3-4.1,2.1-6.6
			C124.1-14.5,124.8-16.5,124.9-16.8z M83.7-16.7v9.5v9.8h-3.2c-1.1,0-2,0-2.6,0c-0.3,0-0.4,0-0.5,0c0-0.1,0-0.1,0-0.1
			c0.1-0.4,0.3-1.1,0.5-1.7c0.4-1.3,1.3-4.1,2.1-6.3c0.7-2.1,1.7-5.2,2.1-6.6c0.5-1.5,1.1-3.2,1.3-3.8
			C83.5-16.1,83.5-16.4,83.7-16.7z M86-16.7c0,0.1,0,0.1,0.1,0.1c0.3,0.7,0.7,2.1,1.6,4.6c0.5,1.6,1.3,4.1,1.9,5.6
			c0.5,1.6,1.3,4.1,1.9,5.6c0.5,1.6,0.9,3,1.1,3.3c-0.1,0-0.3,0-0.5,0c-0.7,0-1.6,0-2.5,0c-1.6,0-2.5,0-3,0c-0.1,0-0.1,0-0.3,0
			c0-0.1,0-0.3,0-0.5c0-0.5,0-1.3,0-2.2c0-1.9,0-4.4,0-7.1c0-5.4,0-8.1,0-9.3C86-16.5,86-16.5,86-16.7z M127.3-16.5L127.3-16.5
			c0.3,0.5,0.5,1.7,1.2,3.8c0.3,0.9,1.2,3.8,2.4,7.7c0.9,2.6,1.6,4.8,2,6.1c0.3,0.7,0.4,1.2,0.5,1.6v0.1c0,0,0,0-0.1,0
			c-0.5,0-1.5,0-2.9,0h-3.2V-7c0-5.6,0-8.2,0-9.4C127.3-16.5,127.3-16.5,127.3-16.5z"/>
		<path id="rect5205-3_2_" inkscape:connector-curvature="0" class="st2" d="M66,20.5v15.6c0,5.8,4.6,10.4,10.4,10.4h72.8
			c5.8,0,10.4-4.6,10.4-10.4V20.5H66z"/>
		<g id="text4491">
			<path id="path4713" inkscape:connector-curvature="0" class="st1" d="M73.5,27.4h8.2v1.9h-5.9V32h5.4v1.9h-5.4v2.8h6.1v1.9h-8.3
				V27.4z"/>
			<path id="path4715" inkscape:connector-curvature="0" class="st1" d="M95.6,39.7c-0.4,0.4-0.9,0.7-1.5,0.9
				c-0.5,0.3-1.1,0.4-1.6,0.4c-0.7,0-1.3-0.3-2-0.7c-0.7-0.4-1.1-0.9-1.6-1.7c-1.1,0-2.1-0.3-3-0.8s-1.6-1.2-2.1-2.1
				c-0.4-0.8-0.7-1.9-0.7-2.9s0.3-2,0.8-2.9c0.5-0.9,1.2-1.6,2.1-2c0.9-0.5,1.9-0.8,3-0.8s2.1,0.3,3,0.8c0.9,0.5,1.6,1.2,2.1,2
				c0.5,0.9,0.8,1.9,0.8,2.9c0,0.8-0.1,1.6-0.5,2.4c-0.3,0.7-0.8,1.3-1.3,1.9c-0.5,0.5-1.2,0.9-2,1.2c0.5,0.5,1.1,0.9,1.7,0.9
				c0.5,0,1.2-0.3,2-0.9L95.6,39.7z M85.3,32.8c0,0.7,0.1,1.3,0.5,2c0.4,0.5,0.8,1.1,1.3,1.3c0.5,0.4,1.2,0.5,1.9,0.5
				c0.7,0,1.3-0.1,1.9-0.5c0.5-0.4,1.1-0.8,1.3-1.3c0.4-0.5,0.5-1.2,0.5-2s-0.1-1.3-0.5-1.9c-0.3-0.5-0.8-1.1-1.3-1.3
				c-0.5-0.4-1.2-0.5-1.9-0.5c-0.7,0-1.3,0.1-1.9,0.5c-0.5,0.3-1.1,0.8-1.3,1.3C85.4,31.5,85.3,32.1,85.3,32.8z"/>
			<path id="path4717" inkscape:connector-curvature="0" class="st1" d="M98.9,33.8c0,0.9,0.3,1.6,0.8,2.1c0.5,0.5,1.2,0.8,2,0.8
				s1.5-0.3,2-0.8c0.5-0.5,0.8-1.2,0.8-2.1v-6.5h2.1v6.5c0,0.9-0.1,1.9-0.5,2.5c-0.4,0.7-0.9,1.2-1.7,1.6c-0.7,0.4-1.6,0.5-2.5,0.5
				c-1.1,0-1.9-0.1-2.6-0.5c-0.8-0.4-1.3-0.9-1.7-1.6c-0.4-0.7-0.5-1.6-0.5-2.5v-6.5H99v6.5H98.9z"/>
			<path id="path4719" inkscape:connector-curvature="0" class="st1" d="M116.9,38.5l-0.9-2.4h-5.4l-0.9,2.4h-2.2l4.9-11.1h2.2
				l4.8,11.1H116.9z M111.2,34.2h4l-2-4.6L111.2,34.2z"/>
			<path id="path4721" inkscape:connector-curvature="0" class="st1" d="M120.4,27.4h2.1v9.1h4.8v2h-6.9V27.4z"/>
			<path id="path4723" inkscape:connector-curvature="0" class="st1" d="M129,27.4h2.1v11.1H129V27.4z"/>
			<path id="path4725" inkscape:connector-curvature="0" class="st1" d="M132.7,27.4h9.1v1.9h-3.4v9.3h-2.1v-9.3h-3.4L132.7,27.4z"
				/>
			<path id="path4727" inkscape:connector-curvature="0" class="st1" d="M152.1,27.4l-4.1,7.5v3.6h-2.1v-3.6l-4.1-7.5h2.1l3,5.2
				l3-5.2H152.1z"/>
		</g>
	</g>
	<g>
		<path id="path4521_1_" inkscape:connector-curvature="0" class="st2" d="M87.1,22.8c-3,0-6.2,1.6-7.8,5c-0.5,1.2-0.7,2-0.7,3.7
			c0,1.7,0.1,2.4,0.8,3.6c0.8,1.5,2,2.9,3.3,3.7c0.5,0.3,1.2,0.5,2,0.8c0.3,0.1,0.5,0.1,0.8,0.1c0,0.1,0,0.5,0,0.9
			c0,0.9,0.1,2.4,0.1,4.1c0,2.6,0,3.8-0.1,4.6c-0.1,0-0.1,0-0.1,0c-0.4-0.1-0.9-0.3-1.6-0.4c-1.3-0.4-3-0.9-4.9-1.6
			c-7.3-2.2-11.5-3-14.7-2.2c-1.2,0.3-2.1,0.7-3.3,1.6c-1.2,0.9-2.5,2.1-4.8,4.2c-1.7,1.6-2.9,2.6-3.7,3.2c-0.9,0.5-1.6,0.7-2.5,0.7
			c-0.5,0-0.8-0.1-0.7,0c0-0.1,0-0.1,0-0.5v-1.7H47h-2.2v0.9c-0.1-0.1-0.4-0.1-0.5-0.3c-0.7-0.4-1.6-0.9-2-1.2
			c-0.5-0.4-0.9-0.7-1.1-0.9c-0.3-0.1-0.4-0.4-0.9-0.5c-0.1,0-0.1,0-0.1,0h-0.3c0,0-0.3,0.1-0.4,0.1l-0.1,0.1l0,0.3
			c-0.1,0.4-0.1,0.5-0.1,0.7c0,0.3,0.1,0.5,0.1,0.7c0.5,2.8,2.5,5.6,5,6.9l0.5,0.3v0.8v0.5H44h-2.4l-1.2,3.8
			c-0.5,1.7-1.9,5.6-2.8,8.5c-0.9,2.9-2.9,8.7-4.2,12.8s-3.3,10-4.2,12.8l-1.6,4.6h-3.3h-6.1l2.1,2.5c4.4,5.2,9.4,7.8,17.5,9.4
			c2.6,0.5,3.4,0.5,8.6,0.5s5.9,0,8.6-0.5c7.5-1.6,13.2-4.4,16.9-8.9l2.4-2.8l-5.4-0.1l-2.9-0.1l-0.3-0.9c-0.3-0.8-0.9-3-1.6-5.2
			c-0.7-2-1.7-5.4-2.5-7.7c-0.7-2.2-1.5-4.6-1.7-5.3c-0.1-0.5-1.2-3.7-2.2-6.7c-0.9-3-2.6-7.9-3.6-11l-2-5.9l-2.4-0.1h-0.9v-0.1
			v-0.1l1.9-0.1c0.8,0,1.6-0.1,2.2-0.1s1.1-0.1,1.6-0.1c2.2-0.7,4.1-1.6,6.6-3.3c1.9-1.2,2.9-1.9,3.7-2.1c0.8-0.3,1.3-0.3,2.5-0.3
			c2,0.1,3,0.5,7.3,2.9c1.6,0.9,3.3,1.9,4.1,2.2c1.9,0.9,4.9,2,6.5,2.2h0.3l-0.1,11.2l-0.1,11.8l-2.2,4.5l-2.4,4.8l0.1,14.1l0.1,13
			h-5.4h-7.3v3.4v2.2l-2.8,4.6c-1.6,2.6-3.7,6.2-4.6,7.7c-0.9,1.6-1.9,3-2.1,3.4l-0.9,2h30.1c7.9,0,14.9,0,20.2-0.1
			c2.6,0,4.8,0,6.2-0.1c0.8,0,1.3,0,1.7,0c0.1,0,0.4,0,0.5,0s0.1,0,0.1,0h0.1l0.1-0.1l0.3-0.1l0.3-0.7v-0.1V143c0-0.1,0-0.1,0-0.1
			c0-0.1-0.1-0.1-0.1-0.1c0-0.1-0.1-0.1-0.1-0.1c-0.1-0.1-0.1-0.4-0.4-0.5c-0.3-0.5-0.8-1.2-1.2-1.9c-0.9-1.3-2.2-3-2.9-4
			c-0.5-0.9-1.3-1.9-1.6-2.1c-0.3-0.3-1.6-2.2-3-4.2l-2.5-3.4v-2.1V121l-6.5-0.1h-4.6l-0.1-13.2l-0.1-14.4l-0.5-1.1
			c-0.1-0.3-1.2-2.5-2.2-4.6L89.6,84V72.5v-11l0.7-0.1c2.6-0.5,4.9-1.6,11.1-5c3.4-2,5.4-2.5,7.3-2.2c1.1,0.1,2.1,0.7,5.3,2.6
			c3.4,2.2,6.5,3.3,9.9,3.3c0.5,0,0.7,0,0.8,0c0,0.1,0,0.1,0,0.3c-0.1,0-0.3,0-0.9,0h-2.2l-0.7,1.9c-0.3,0.8-1.6,4.8-2.9,8.9
			c-1.3,4.1-2.9,9-3.4,10.7c-0.5,1.7-2.1,6.5-3.4,10.7c-1.3,4.1-2.8,8.5-3,9.4l-0.4,1.2l-3.3,0.1l-5.7,0.1l1.6,2.2
			c2.6,3.6,7.5,6.7,12.6,8.3c6.9,2.2,15.9,2.5,23.3,0.9c3.3-0.7,5.4-1.5,8.3-2.9c3.3-1.6,5.7-3.4,8.3-6.6l1.9-2.2h-5.4h-2.9
			l-0.1-0.7c-0.1-0.7-1.1-3.2-1.7-5.4c-0.7-2.2-1.5-4.6-1.7-5.3c-0.1-0.5-0.9-2.8-1.6-4.9c-0.7-2-1.5-4.5-1.9-5.6
			c-0.5-1.9-2.6-8.3-5.3-16.4l-1.3-4.4h-2.4h-0.9v-0.3c0-0.3,0-0.4,0-0.5c3.3-1.2,6.1-4.1,6.6-7.5l0.7-3.4l-3.2,2.6
			c-0.5,0.4-1.6,1.1-2.5,1.6c-0.7,0.4-1.2,0.5-1.6,0.8v-1.3H127h-2.2v1.7c0,0.3,0,0.4,0,0.5c-0.1,0-0.1,0-0.4,0
			c-0.8-0.1-1.3-0.4-2.2-0.9c-0.9-0.5-2-1.6-3.4-3c-2.5-2.4-4.1-3.8-5.6-4.8c-1.6-0.9-3-1.1-4.9-1.1c-3.4,0-5.8,0.5-12.2,2.6
			c-1.9,0.5-3.7,1.2-5.2,1.6c-0.7,0.1-1.3,0.4-1.7,0.5c0-0.1,0-0.4,0-0.7c0-1.1,0-2.5,0-4.1v-5.2l0.3-0.1c2.4-0.7,4.1-2.2,5.3-4.8
			c0.5-1.2,0.7-2,0.7-3.4c0-1.6-0.1-2.2-0.7-3.4C93.3,24.4,90.1,22.8,87.1,22.8L87.1,22.8z M124.8,65.2c0,0.5,0.1,1.2,0.1,2.5
			c0,2.6,0.1,7.5,0.1,16.4c0,5.4,0,10.3,0,13.9c0,1.9,0,3.3,0,4.4c0,0.5,0,0.8,0,0.9c-0.1,0-0.1,0-0.5,0c-0.9,0-2.8,0.1-5.9,0.1
			c-2.6,0-4.5,0-5.6-0.1c-0.1,0-0.3,0-0.4,0c0-0.1,0-0.1,0-0.1c0.1-0.7,0.5-1.5,0.8-2.4c1.2-3.7,2.5-7.5,4.4-13.2
			c0.9-2.6,2.6-8.1,4.1-12.8C123.3,69.7,124.6,65.8,124.8,65.2z M44.8,65.6l0.1,18.5l0.1,19.2h-6.2c-2,0-3.7,0-5.2,0
			c-0.5,0-0.8,0-1.1,0c0-0.1,0.1-0.1,0.1-0.4c0.3-0.9,0.7-2,1.1-3.3c0.9-2.6,2.6-8.1,4.1-12.2c1.3-4.1,3.3-9.9,4.1-12.8
			c0.9-2.9,2-6.2,2.5-7.5C44.5,66.6,44.7,66.2,44.8,65.6L44.8,65.6z M49.4,65.8c0.1,0.1,0.1,0.1,0.1,0.4c0.5,1.3,1.3,4.1,3,9
			c0.9,3,2.5,7.9,3.4,10.8c0.9,3,2.5,7.9,3.4,10.8c0.9,3,1.9,5.8,2,6.3c-0.3,0-0.5,0-0.9,0c-1.2,0-3,0-5,0c-3,0-4.9,0-5.8-0.1
			c-0.3,0-0.3,0-0.5,0c0-0.3,0-0.5,0-0.9c0-1.1,0-2.5,0-4.4c0-3.6,0-8.5,0-13.9c0-10.6,0-15.6,0.1-17.8
			C49.4,65.9,49.4,65.9,49.4,65.8L49.4,65.8z M129.4,65.8C129.4,65.9,129.4,65.8,129.4,65.8c0.4,1.2,1.2,3.3,2.4,7.5
			c0.5,2,2.4,7.4,4.8,14.8c1.7,5.3,3,9.3,3.8,11.9c0.4,1.3,0.8,2.4,0.9,3c0,0.1,0,0.1,0.1,0.1c-0.1,0-0.1,0-0.1,0
			c-0.9,0-2.8,0.1-5.8,0.1h-6.2v-19c0-10.8,0-16,0.1-18.2C129.4,65.9,129.4,65.9,129.4,65.8L129.4,65.8z"/>
		<path id="rect5205-3_1_" inkscape:connector-curvature="0" class="st2" d="M10.6,137.7V168c0,11.1,9,20.2,20.2,20.2h141.3
			c11.1,0,20.2-9,20.2-20.2v-30.3H10.6z"/>
		<text transform="matrix(0.9867 0 0 1 14.2588 182.4299)" class="st4 st7 st8">REGULIERT</text>
	</g>
</g>
</svg>
