<?xml version="1.0" encoding="utf-8"?>
<!-- Generator: Adobe Illustrator 22.0.1, SVG Export Plug-In . SVG Version: 6.00 Build 0)  -->
<svg version="1.1"
	 id="svg8" inkscape:version="0.92.1 r15371" sodipodi:docname="progress.svg" xmlns:cc="http://creativecommons.org/ns#" xmlns:dc="http://purl.org/dc/elements/1.1/" xmlns:inkscape="http://www.inkscape.org/namespaces/inkscape" xmlns:rdf="http://www.w3.org/1999/02/22-rdf-syntax-ns#" xmlns:sodipodi="http://sodipodi.sourceforge.net/DTD/sodipodi-0.dtd" xmlns:svg="http://www.w3.org/2000/svg"
	 xmlns="http://www.w3.org/2000/svg" xmlns:xlink="http://www.w3.org/1999/xlink" x="0px" y="0px" viewBox="0 0 200 200"
	 style="enable-background:new 0 0 200 200;" xml:space="preserve">
<style type="text/css">
	.st0{enable-background:new    ;}
	.st1{fill:#EEEEEE;}
	.st2{fill:#222222;}
	.st3{fill:#9C27B0;}
	.st4{fill:#FFFFFF;}
	.st5{font-family:'Montserrat-Regular';}
	.st6{font-size:30.6667px;}
</style>
<defs>
	
	
		<inkscape:path-effect  bendpath1="m -199.08406,108.42369 h 7.0057" bendpath2="m -192.07836,108.42369 v 6.75242" bendpath3="m -199.08406,115.17611 h 7.0057" bendpath4="m -199.08406,108.42369 v 6.75242" effect="envelope" id="path-effect4658" is_visible="true" xx="true" yy="true">
		</inkscape:path-effect>
	
		<inkscape:path-effect  bendpath="m -192.00142,114.60623 c 2.12577,-0.53066 4.48261,0.85111 7.0057,0" bendpath-nodetypes="cc" effect="bend_path" id="path-effect4656" is_visible="true" prop_scale="1" scale_y_rel="false" vertical="false">
		</inkscape:path-effect>
	<inkscape:path-effect  effect="bounding_box" id="path-effect4654" is_visible="true" linkedpath="" visualbounds="false">
		</inkscape:path-effect>
</defs>
<sodipodi:namedview  bordercolor="#666666" borderopacity="1.0" fit-margin-bottom="0" fit-margin-left="0" fit-margin-right="0" fit-margin-top="0" id="base" inkscape:current-layer="layer1" inkscape:cx="616.35575" inkscape:cy="150.46772" inkscape:document-units="px" inkscape:object-nodes="true" inkscape:pageopacity="0.0" inkscape:pageshadow="2" inkscape:snap-page="true" inkscape:window-height="1016" inkscape:window-maximized="1" inkscape:window-width="1920" inkscape:window-x="0" inkscape:window-y="27" inkscape:zoom="0.5" pagecolor="#ffffff" showgrid="false" showguides="false" units="px">
	</sodipodi:namedview>
<text transform="matrix(1 0 0 1 -1010.7832 -268.4608)" class="st1 st5" style="font-size:32px;">ORD</text>
<g>
	<g id="g5375" transform="matrix(2,0,0,2,41.766364,153.58655)">
		<path id="rect5363_1_" class="st2" d="M-13.4-76.8h85.1c4.1,0,7.5,3.3,7.5,7.5v85.1c0,4.1-3.3,7.5-7.5,7.5h-85.1
			c-4.1,0-7.5-3.3-7.5-7.5v-85.1C-20.9-73.5-17.5-76.8-13.4-76.8z"/>
		<path id="rect5365_1_" class="st3" d="M-10.9-71.7h80c2.8,0,5.1,2.3,5.1,5.1v80c0,2.8-2.3,5.1-5.1,5.1h-80c-2.8,0-5.1-2.3-5.1-5.1
			v-80C-15.9-69.6-13.7-71.7-10.9-71.7z"/>
		<path id="text5407_1_" inkscape:connector-curvature="0" class="st2" d="M19.9-63.7c-0.3,0-0.4,0.1-0.5,0.4l0,0
			c-2,0.3-3.9,1.5-5.6,4.3c-1.9,2.9-3.2,7.2-4.1,12.4C4.7-48.4,0.5-49.3-3-49.2c-3.6,0-6.1,0.9-7.3,2.9l0,0
			c-0.4,0.7-0.5,1.5-0.5,2.4c0,1.6,0.5,3.3,1.7,5.3c1.6,3.1,4.5,6.3,8.5,9.7c-4,3.5-6.9,6.8-8.5,9.7l0,0c-1.1,2-1.6,3.7-1.6,5.2
			c0,0.9,0.1,1.7,0.5,2.4l0,0c1.1,2,3.6,2.9,7.1,3.1l0,0c3.5,0.1,7.7-0.9,12.8-2.7c1.1,5.1,2.4,9.3,4.1,12.3l0,0
			c1.9,3.1,4,4.8,6.3,4.8s4.3-1.7,6.1-4.8l0,0c1.7-2.9,3.1-7.2,4.1-12.3c5.1,1.7,9.3,2.7,12.8,2.5c3.6-0.1,6-1.1,7.1-2.9l0,0
			c0.4-0.7,0.7-1.6,0.7-2.4c0-1.5-0.5-3.2-1.6-5.2l0,0c-1.7-3.1-4.7-6.3-8.7-9.7c3.9-3.5,6.9-6.7,8.5-9.7l0,0c1.1-2,1.7-3.7,1.7-5.3
			c0-0.9-0.3-1.7-0.7-2.4c-1.2-2-3.6-2.9-7.3-2.9c-3.5,0-7.7,0.9-12.7,2.5c-1.1-5.2-2.4-9.5-4.1-12.4C24.2-62.1,22.2-63.7,19.9-63.7
			L19.9-63.7L19.9-63.7z M19.9-60.3c0.5,0,1.2,0.3,1.9,0.9c0.7,0.7,1.3,1.6,2,2.9c1.3,2.5,2.4,6.1,3.2,10.8
			c-2.4,0.9-4.7,1.9-7.1,3.1c-2.4-1.2-4.8-2.1-7.2-3.1c0.8-4.7,1.9-8.4,3.2-10.8c0.7-1.3,1.5-2.3,2.1-2.9
			C18.7-60,19.4-60.3,19.9-60.3L19.9-60.3z M-2.9-46c0.4,0,0.7,0,1.1,0C1-45.9,4.7-44.9,9-43.3c-0.4,2.5-0.7,5.1-0.8,7.7
			c-2.1,1.5-4.3,3.1-6.3,4.5c-3.6-2.9-6.3-5.6-7.7-8l0,0c-0.8-1.3-1.3-2.4-1.6-3.3c-0.1-0.9-0.1-1.6,0.3-2.1l0,0
			c0.3-0.5,0.8-0.9,1.7-1.2C-4.7-45.9-3.9-46-2.9-46L-2.9-46z M42.9-46c1.1,0,1.9,0.1,2.5,0.3c0.9,0.3,1.5,0.7,1.7,1.2
			c0.3,0.5,0.4,1.2,0.1,2.1c-0.3,0.9-0.7,2-1.6,3.3l0,0c-1.6,2.4-4.3,5.2-7.7,8.1c-2-1.6-4-3.1-6.3-4.5c-0.1-2.7-0.5-5.2-0.9-7.7
			c4.3-1.6,8-2.5,10.9-2.7l0,0C42.1-46,42.5-46,42.9-46L42.9-46z M27.5-42.1c0.1,1.3,0.3,2.7,0.4,4.1c-0.7-0.4-1.3-0.8-2-1.2l0,0
			c-0.8-0.4-1.5-0.8-2.1-1.2C25.1-41.1,26.3-41.6,27.5-42.1L27.5-42.1z M12.3-42.1c1.2,0.5,2.5,1.1,3.7,1.6
			c-0.7,0.4-1.3,0.8-2.1,1.2l0,0c-0.7,0.4-1.3,0.8-2,1.2C11.9-39.5,12.2-40.8,12.3-42.1L12.3-42.1z M19.9-38.5
			c1.5,0.8,2.9,1.5,4.3,2.3c1.5,0.8,2.8,1.6,4.1,2.5c0.1,1.6,0.1,3.2,0.1,4.9c0,1.6,0,3.2-0.1,4.8c-1.3,0.8-2.7,1.7-4.1,2.5l0,0
			c-1.5,0.8-2.8,1.6-4.3,2.4c-1.5-0.8-2.8-1.5-4.3-2.4l0,0c-1.5-0.8-2.8-1.6-4.1-2.5c0-1.6-0.1-3.2-0.1-4.8c0-1.6,0-3.3,0.1-4.9
			c1.3-0.8,2.8-1.7,4.1-2.5l0,0C17.1-37.1,18.5-37.7,19.9-38.5L19.9-38.5z M19.9-32.9c-0.7,0-1.5,0.1-2,0.5
			c-0.7,0.3-1.2,0.8-1.5,1.5c-0.4,0.7-0.5,1.3-0.5,2.1c0,0.7,0.1,1.5,0.5,2l0,0c0.4,0.7,0.9,1.1,1.5,1.5c0.7,0.4,1.3,0.5,2,0.5
			s1.3-0.1,2-0.5c0.7-0.4,1.2-0.8,1.5-1.5l0,0c0.4-0.7,0.5-1.3,0.5-2c0-0.8-0.1-1.5-0.5-2.1c-0.4-0.7-0.9-1.2-1.5-1.5
			C21.4-32.8,20.7-32.9,19.9-32.9L19.9-32.9z M7.9-31.2c0,0.8,0,1.6,0,2.4c0,0.8,0,1.6,0,2.4c-1.2-0.8-2.3-1.6-3.3-2.4
			C5.7-29.6,6.9-30.5,7.9-31.2z M31.9-31.2c1.2,0.8,2.3,1.6,3.3,2.4c-1.1,0.8-2.3,1.6-3.3,2.4c0-0.8,0-1.6,0-2.4
			C32.1-29.6,31.9-30.4,31.9-31.2z M1.9-26.7c2,1.6,4.1,3.1,6.3,4.5c0.1,2.7,0.4,5.2,0.8,7.7c-4.4,1.6-8.1,2.5-10.9,2.7
			c-1.5,0-2.7,0-3.6-0.3s-1.3-0.7-1.7-1.2c-0.3-0.5-0.4-1.2-0.1-2c0.3-0.9,0.7-2,1.5-3.3l0,0C-4.5-20.9-1.8-23.6,1.9-26.7L1.9-26.7z
			 M38.1-26.7c3.6,2.9,6.3,5.7,7.9,8.1l0,0c0.8,1.3,1.3,2.4,1.5,3.3c0.1,0.9,0.1,1.5-0.1,2l0,0c-0.3,0.5-0.8,0.9-1.7,1.2
			c-0.9,0.3-2,0.4-3.6,0.3c-2.8-0.1-6.5-1.1-10.9-2.7c0.4-2.5,0.7-5.1,0.8-7.7C33.9-23.5,36.1-25.1,38.1-26.7L38.1-26.7z M11.9-19.7
			c0.7,0.4,1.3,0.8,2,1.3c0.7,0.4,1.5,0.8,2.1,1.2c-1.2,0.5-2.5,1.1-3.7,1.6C12.1-16.9,11.9-18.3,11.9-19.7L11.9-19.7z M28.1-19.6
			c-0.1,1.3-0.3,2.8-0.4,4.1c-1.2-0.5-2.5-1.1-3.7-1.6c0.7-0.4,1.5-0.8,2.1-1.2l0,0C26.7-18.8,27.4-19.2,28.1-19.6L28.1-19.6z
			 M19.9-15.2c2.4,1.2,4.8,2.1,7.2,3.2c-0.8,4.5-1.9,8.3-3.2,10.8l0,0c-0.7,1.3-1.3,2.4-2,2.9c-0.7,0.7-1.3,0.9-1.9,0.9
			c-0.7,0-1.2-0.3-1.9-0.9s-1.3-1.6-2.1-2.9c-1.3-2.5-2.4-6.3-3.2-10.8C15.1-13.1,17.5-14.1,19.9-15.2L19.9-15.2z"/>
		<path id="path5369_2_" inkscape:connector-curvature="0" class="st2" d="M-18.2-6.8V8.9c0,5.9,4.7,10.5,10.5,10.5h73.5
			c5.9,0,10.5-4.7,10.5-10.5V-6.8H-18.2z"/>
		<g id="text5373">
			<path id="path4608" inkscape:connector-curvature="0" class="st1" d="M-6.7,0c1.5,0,2.5,0.4,3.2,1.1c0.8,0.7,1.2,1.6,1.2,2.8
				c0,1.3-0.4,2.3-1.2,2.9c-0.8,0.7-1.9,1.1-3.2,1.1h-2.4v3.3h-2.1V0H-6.7z M-6.9,6C-6.1,6-5.4,5.9-5,5.5c0.4-0.4,0.7-0.9,0.7-1.6
				S-4.6,2.7-5,2.3c-0.4-0.4-1.1-0.5-1.9-0.5h-2.4v4.1h2.4V6z"/>
			<path id="path4610" inkscape:connector-curvature="0" class="st1" d="M5.5,11.2l-2-3.3c-0.1,0-0.3,0-0.4,0H0.6v3.3h-2.1V0h4.7
				c1.5,0,2.5,0.4,3.3,1.1s1.2,1.6,1.2,2.8c0,0.9-0.1,1.6-0.5,2.3C6.7,6.8,6.2,7.2,5.5,7.5l2.4,3.7H5.5z M0.6,6h2.5
				C3.9,6,4.6,5.9,5,5.5c0.4-0.4,0.7-0.9,0.7-1.6S5.4,2.7,5,2.3C4.6,1.9,3.9,1.7,3.1,1.7H0.6V6z"/>
			<path id="path4612" inkscape:connector-curvature="0" class="st1" d="M14.2-0.1c1.1,0,2.1,0.3,3.1,0.8s1.6,1.2,2.1,2
				s0.8,1.9,0.8,2.9c0,1.1-0.3,2-0.8,2.9c-0.5,0.9-1.2,1.6-2.1,2.1c-0.9,0.5-1.9,0.8-3.1,0.8s-2.1-0.3-3.1-0.8
				C10.2,10.1,9.5,9.5,9,8.5C8.5,7.6,8.2,6.7,8.2,5.6c0-1.1,0.3-2,0.8-2.9c0.5-0.9,1.2-1.6,2.1-2C12.1,0.1,13-0.1,14.2-0.1z
				 M14.2,1.9c-0.7,0-1.3,0.1-1.9,0.5c-0.5,0.3-1.1,0.8-1.3,1.3c-0.4,0.5-0.5,1.2-0.5,1.9s0.1,1.3,0.5,2c0.4,0.5,0.8,1.1,1.3,1.3
				c0.5,0.4,1.2,0.5,1.9,0.5c0.7,0,1.3-0.1,1.9-0.5c0.5-0.4,1.1-0.8,1.3-1.3c0.4-0.5,0.5-1.2,0.5-2s-0.1-1.3-0.5-1.9
				c-0.3-0.5-0.8-1.1-1.3-1.3C15.5,2,14.9,1.9,14.2,1.9z"/>
			<path id="path4614" inkscape:connector-curvature="0" class="st1" d="M28.2,5.6h1.9v4.3c-0.5,0.4-1.3,0.8-2.1,1.1
				c-0.8,0.3-1.6,0.4-2.4,0.4c-1.1,0-2.1-0.3-3.1-0.8c-0.9-0.5-1.6-1.2-2.1-2.1c-0.5-0.9-0.8-1.9-0.8-2.9c0-1.1,0.3-2,0.8-2.9
				c0.5-0.9,1.2-1.6,2.1-2c0.9-0.5,2-0.8,3.1-0.8c0.8,0,1.6,0.1,2.4,0.4c0.8,0.3,1.5,0.7,2,1.2l-1.2,1.6c-0.4-0.4-0.9-0.7-1.5-0.9
				s-1.1-0.4-1.7-0.4c-0.7,0-1.3,0.1-2,0.5c-0.5,0.3-1.1,0.8-1.3,1.3c-0.4,0.5-0.5,1.2-0.5,1.9s0.1,1.3,0.5,2
				c0.4,0.5,0.8,1.1,1.5,1.3c0.5,0.4,1.2,0.5,2,0.5c0.4,0,0.8,0,1.2-0.1c0.4-0.1,0.8-0.3,1.2-0.5V5.6H28.2z"/>
			<path id="path4616" inkscape:connector-curvature="0" class="st1" d="M38.6,11.2l-2-3.3c-0.1,0-0.3,0-0.4,0h-2.5v3.3h-2.1V0h4.7
				c1.5,0,2.5,0.4,3.3,1.1s1.2,1.6,1.2,2.8c0,0.9-0.1,1.6-0.5,2.3c-0.4,0.7-0.9,1.1-1.6,1.3l2.4,3.7H38.6z M33.7,6h2.5
				c0.8,0,1.5-0.1,1.9-0.5c0.4-0.4,0.7-0.9,0.7-1.6s-0.3-1.2-0.7-1.6c-0.4-0.4-1.1-0.5-1.9-0.5h-2.5V6z"/>
			<path id="path4618" inkscape:connector-curvature="0" class="st1" d="M42.2,0h8.3v1.9h-6v2.8h5.5v1.9h-5.5v2.8h6.3v1.9h-8.4V0
				H42.2z"/>
			<path id="path4620" inkscape:connector-curvature="0" class="st1" d="M58.7,2.9c-0.5-0.4-1.2-0.7-1.7-0.8s-1.1-0.3-1.6-0.3
				c-0.5,0-0.9,0.1-1.2,0.3c-0.3,0.1-0.4,0.4-0.4,0.8c0,0.3,0.1,0.5,0.3,0.8c0.3,0.3,0.5,0.4,0.8,0.5c0.3,0.1,0.8,0.3,1.3,0.4
				c0.8,0.3,1.3,0.4,1.9,0.7s0.9,0.5,1.2,0.9c0.4,0.4,0.5,1.1,0.5,1.7s-0.1,1.3-0.5,1.7c-0.4,0.5-0.9,0.9-1.5,1.2
				c-0.7,0.3-1.3,0.4-2.3,0.4s-1.7-0.1-2.5-0.5c-0.8-0.3-1.6-0.8-2.1-1.3l0.9-1.9c0.5,0.5,1.2,0.9,1.9,1.2c0.7,0.3,1.3,0.4,2,0.4
				c0.5,0,1.1-0.1,1.5-0.4c0.4-0.3,0.5-0.5,0.5-0.9c0-0.3-0.1-0.5-0.3-0.8c-0.3-0.3-0.4-0.4-0.8-0.5c-0.3-0.1-0.8-0.3-1.3-0.4
				c-0.8-0.3-1.3-0.4-1.9-0.7c-0.5-0.3-0.9-0.5-1.2-0.9c-0.4-0.4-0.5-1.1-0.5-1.7s0.1-1.2,0.5-1.7s0.8-0.9,1.5-1.2
				c0.7-0.3,1.3-0.4,2.3-0.4c0.7,0,1.5,0.1,2.1,0.3c0.7,0.3,1.3,0.5,1.9,0.8L58.7,2.9z"/>
			<path id="path4622" inkscape:connector-curvature="0" class="st1" d="M67.8,2.9c-0.5-0.4-1.2-0.7-1.7-0.8S65,1.9,64.5,1.9
				c-0.5,0-0.9,0.1-1.2,0.3c-0.3,0.1-0.4,0.4-0.4,0.8c0,0.3,0.1,0.5,0.3,0.8c0.3,0.3,0.5,0.4,0.8,0.5s0.8,0.3,1.3,0.4
				c0.8,0.3,1.3,0.4,1.9,0.7s0.9,0.5,1.2,0.9c0.4,0.4,0.5,1.1,0.5,1.7s-0.1,1.3-0.5,1.7c-0.4,0.5-0.9,0.9-1.5,1.2
				c-0.7,0.3-1.3,0.4-2.3,0.4s-1.7-0.1-2.5-0.5c-0.8-0.3-1.6-0.8-2.1-1.3l0.9-1.9c0.5,0.5,1.2,0.9,1.9,1.2c0.7,0.3,1.3,0.4,2,0.4
				c0.5,0,1.1-0.1,1.5-0.4c0.4-0.3,0.5-0.5,0.5-0.9c0-0.3-0.1-0.5-0.3-0.8c-0.3-0.3-0.4-0.4-0.8-0.5c-0.3-0.1-0.8-0.3-1.3-0.4
				c-0.8-0.3-1.3-0.4-1.9-0.7c-0.5-0.3-0.9-0.5-1.2-0.9c-0.4-0.4-0.5-1.1-0.5-1.7s0.1-1.2,0.5-1.7c0.4-0.5,0.8-0.9,1.5-1.2
				c0.7-0.3,1.3-0.4,2.3-0.4c0.7,0,1.5,0.1,2.1,0.3C67.8,0,68.5,0.3,69,0.5L67.8,2.9z"/>
		</g>
	</g>
	<g>
		<path id="path5369_1_" inkscape:connector-curvature="0" class="st2" d="M2.7,147.4v31.5c0,11.6,9.5,21.1,21.1,21.1h147.1
			c11.6,0,21.1-9.5,21.1-21.1v-31.5H2.7z"/>
		<text transform="matrix(0.8313 0 0 1 15.2002 186.6662)" class="st4 st5 st6">PROGRESSIV</text>
	</g>
</g>
</svg>
