<?xml version="1.0" encoding="utf-8"?>
<!-- Generator: Adobe Illustrator 22.0.1, SVG Export Plug-In . SVG Version: 6.00 Build 0)  -->
<svg version="1.1"
	 id="svg8" inkscape:version="0.92.1 r15371" sodipodi:docname="wealth.svg" xmlns:cc="http://creativecommons.org/ns#" xmlns:dc="http://purl.org/dc/elements/1.1/" xmlns:inkscape="http://www.inkscape.org/namespaces/inkscape" xmlns:rdf="http://www.w3.org/1999/02/22-rdf-syntax-ns#" xmlns:sodipodi="http://sodipodi.sourceforge.net/DTD/sodipodi-0.dtd" xmlns:svg="http://www.w3.org/2000/svg"
	 xmlns="http://www.w3.org/2000/svg" xmlns:xlink="http://www.w3.org/1999/xlink" x="0px" y="0px" viewBox="0 0 200 200"
	 style="enable-background:new 0 0 200 200;" xml:space="preserve">
<style type="text/css">
	.st0{fill:#222222;}
	.st1{fill:#00897B;}
	.st2{fill:#FFFFFF;}
	.st3{font-family:'Quadriga';}
	.st4{font-size:29.1996px;}
	.st5{fill:#EEEEEE;}
	.st6{font-family:'Montserrat-Regular';}
	.st7{font-size:30.492px;}
</style>
<defs>
	
	
		<inkscape:path-effect  bendpath1="m -199.08406,108.42369 h 7.0057" bendpath2="m -192.07836,108.42369 v 6.75242" bendpath3="m -199.08406,115.17611 h 7.0057" bendpath4="m -199.08406,108.42369 v 6.75242" effect="envelope" id="path-effect4658" is_visible="true" xx="true" yy="true">
		</inkscape:path-effect>
	
		<inkscape:path-effect  bendpath="m -192.00142,114.60623 c 2.12577,-0.53066 4.48261,0.85111 7.0057,0" bendpath-nodetypes="cc" effect="bend_path" id="path-effect4656" is_visible="true" prop_scale="1" scale_y_rel="false" vertical="false">
		</inkscape:path-effect>
	<inkscape:path-effect  effect="bounding_box" id="path-effect4654" is_visible="true" linkedpath="" visualbounds="false">
		</inkscape:path-effect>
</defs>
<sodipodi:namedview  bordercolor="#666666" borderopacity="1.0" fit-margin-bottom="0" fit-margin-left="0" fit-margin-right="0" fit-margin-top="0" id="base" inkscape:current-layer="layer1" inkscape:cx="859.81981" inkscape:cy="-94.531022" inkscape:document-units="mm" inkscape:object-nodes="true" inkscape:pageopacity="0.0" inkscape:pageshadow="2" inkscape:snap-page="true" inkscape:window-height="1016" inkscape:window-maximized="1" inkscape:window-width="1920" inkscape:window-x="0" inkscape:window-y="27" inkscape:zoom="0.70710678" pagecolor="#ffffff" showgrid="false" showguides="false" units="px">
	</sodipodi:namedview>
<path id="rect5322" class="st0" d="M15.2,0h170c8.3,0,15,6.7,15,15v170c0,8.3-6.7,15-15,15h-170c-8.3,0-15-6.7-15-15V15
	C0.2,6.7,6.9,0,15.2,0z"/>
<path id="rect5324" class="st1" d="M20.2,10h160c5.5,0,10,4.5,10,10v160c0,5.5-4.5,10-10,10h-160c-5.5,0-10-4.5-10-10V20
	C10.2,14.5,14.6,10,20.2,10z"/>
<path id="path5326" inkscape:connector-curvature="0" class="st0" d="M5.7,140v31.5c0,11.6,9.4,21,21,21h147c11.6,0,21-9.4,21-21
	V140H5.7z"/>
<path id="path5347" inkscape:connector-curvature="0" class="st0" d="M71.1,140l-0.1-6.1l-4.6-0.8c-5-0.8-11.6-2.7-15.1-4.4
	c-5.9-2.7-11.9-8.3-14-12.9c-1.1-2.4-1.3-3.6-1.3-6.7c0-4.5,1.1-7.1,4.2-9.6c3.2-2.6,6.8-3.8,11.4-3.9c4.5,0,7.3,0.9,10.3,3.3
	c9.7,8,4.4,21.1-8.9,22.4l-3.1,0.3L51,123c2.6,2.5,8.4,4.7,15.7,6.1c5,1,4.5,3.2,4.5-19.3V90l-2.6-1.1c-1.4-0.6-4.5-1.9-6.8-2.8
	c-10.9-4.6-18.6-11.3-21.4-18.8c-2.2-5.9-1.6-15.5,1.5-21.7c4.3-8.6,14.2-15.2,26.5-17.5l2.8-0.5v-5.8V16h2h2v5.6v5.6H80h4.9v-5.6
	V16H87h2.2v5.8c0,3.2,0.2,5.8,0.4,5.8c1.6,0,7.2,1.1,10.2,2c12.5,3.7,19.8,10.3,20.5,18.2c0.3,3.5-0.7,6.2-3.2,8.8
	c-2.9,2.9-5,3.7-10.1,3.7c-4,0-4.6-0.1-7.1-1.4c-3.2-1.7-5.6-4.6-6.4-7.9c-0.5-2.1-0.5-2.7,0.4-5.5c1.1-3.2,2.1-4.4,5.8-6.6
	c1.5-0.9,2.7-1.2,4.8-1.3c1.5,0,2.7-0.2,2.7-0.4c0-1.2-7.8-4.3-12.9-5.2c-1.6-0.3-3.4-0.6-4-0.7l-1.1-0.2l0.1,18.3l0.1,18.3l4.8,1.7
	c10.4,3.7,19.4,8.4,24.2,12.7c6.7,5.9,8.8,9.8,9.2,17.2c0.5,8.1-1.2,14.1-5.6,20.1c-3.9,5.5-9.6,9.1-18.4,11.7
	c-2.9,0.9-7.4,1.8-9.9,2.1l-4.6,0.5v6.1v6.1H87h-2.2v-6v-6H80h-4.9v6v6h-1.9h-1.9L71.1,140z M83,130.1h1.8v-17.8V94.5l-4.4-1.6
	c-2.4-0.9-4.6-1.6-4.9-1.6S75,98.1,75,110.6V130l2.1,0.2c1.1,0.1,2.5,0.1,3.1,0C80.7,130.1,82,130.1,83,130.1L83,130.1z M94.6,127.5
	c3.7-1.6,7.9-5.4,9.3-8.3c1.5-3.2,1.5-8.6,0-11.6c-2.1-4.3-5.5-7.1-12.3-10.3l-2.5-1.1v16.5v16.5l1.3-0.3
	C91.3,128.8,93.1,128.1,94.6,127.5L94.6,127.5z M84.8,48.6V30.8h-3.1c-1.7,0-3.9,0.1-4.9,0.3L75,31.4l0.1,16l0.1,16l1.2,0.3
	c0.7,0.2,2.8,0.8,4.6,1.5c1.9,0.6,3.5,1.1,3.5,1.2C84.8,66.4,84.8,58.4,84.8,48.6L84.8,48.6z M71.2,47c0-16.5,0.3-15.5-4.2-13.2
	c-3.7,1.9-7.2,5.6-8.2,8.7c-1.8,5.2-0.3,9.9,4.5,14.1c1.8,1.6,6.8,4.8,7.6,4.8C71,61.5,71.2,55,71.2,47z"/>
<text transform="matrix(1 0 0 1 14.0009 178.1719)" class="st2 st3 st4">FREIHEITLICH</text>
<g>
	<g id="g5334" transform="matrix(2,0,0,2,-124.92114,153.58655)">
		<path id="rect5322_1_" class="st0" d="M69.9-76.4h84.6c4.1,0,7.4,3.3,7.4,7.4v84.6c0,4.1-3.3,7.4-7.4,7.4H69.9
			c-4.1,0-7.4-3.3-7.4-7.4v-84.6C62.5-73.1,65.8-76.4,69.9-76.4z"/>
		<path id="rect5324_2_" class="st1" d="M72.4-71.3h79.5c2.8,0,5,2.3,5,5v79.5c0,2.8-2.3,5-5,5H72.4c-2.8,0-5-2.3-5-5v-79.5
			C67.4-69.2,69.6-71.3,72.4-71.3z"/>
		<path id="path5326_2_" inkscape:connector-curvature="0" class="st0" d="M65.1-6.8V8.9c0,5.8,4.6,10.5,10.5,10.5h73
			c5.8,0,10.5-4.6,10.5-10.5V-6.8H65.1z"/>
		<path id="path5347_2_" inkscape:connector-curvature="0" class="st0" d="M97.7-6.8l-0.1-3l-2.3-0.4c-2.5-0.4-5.7-1.3-7.6-2.1
			c-2.9-1.3-6-4.1-6.9-6.4c-0.5-1.2-0.7-1.7-0.7-3.3c0-2.3,0.5-3.6,2.1-4.8c1.6-1.3,3.3-1.9,5.7-2c2.3,0,3.6,0.4,5.2,1.6
			c4.8,4,2.3,10.5-4.4,11.1l-1.6,0.1l0.7,0.7c1.3,1.2,4.2,2.4,7.8,3c2.5,0.5,2.3,1.6,2.3-9.5v-9.8l-1.3-0.5
			c-0.7-0.3-2.3-0.9-3.4-1.5c-5.4-2.3-9.3-5.6-10.6-9.4c-1.1-2.9-0.8-7.7,0.8-10.7c2.1-4.2,7-7.6,13.1-8.7l1.5-0.3v-2.9v-2.9h0.9
			h0.9v2.8v2.8h2.4h2.4v-2.8v-2.8h1.1h1.1v2.9c0,1.6,0.1,2.9,0.1,2.9c0.8,0,3.6,0.5,5,1.1c6.2,1.9,9.8,5,10.2,9
			c0.1,1.7-0.4,3-1.6,4.4c-1.5,1.5-2.5,1.9-5,1.9c-2,0-2.3,0-3.4-0.7c-1.6-0.8-2.8-2.3-3.2-4c-0.3-1.1-0.3-1.3,0.3-2.7
			c0.5-1.6,1.1-2.3,2.9-3.3c0.8-0.4,1.3-0.7,2.4-0.7c0.8,0,1.3-0.1,1.3-0.3c0-0.5-3.8-2.1-6.4-2.7c-0.8-0.1-1.7-0.3-2-0.4l-0.5-0.1
			v9.1v9.1l2.4,0.8c5.2,1.9,9.7,4.2,12.1,6.2c3.3,2.9,4.4,4.9,4.6,8.5c0.3,4-0.5,7-2.8,9.9c-2,2.7-4.8,4.5-9.1,5.8
			c-1.5,0.4-3.7,0.9-4.9,1.1l-2.3,0.3v3v3h-1.1h-1.1v-3v-3h-2.4H100v3v3h-0.9h-0.9L97.7-6.8z M103.7-11.7h0.9v-8.9v-8.9l-2.1-0.8
			c-1.2-0.4-2.3-0.8-2.4-0.8c-0.1,0-0.3,3.4-0.3,9.7v9.7l1.1,0.1c0.5,0,1.2,0,1.5,0C102.5-11.7,103.2-11.7,103.7-11.7L103.7-11.7z
			 M109.4-13c1.9-0.8,4-2.7,4.6-4.1c0.8-1.6,0.8-4.2,0-5.8c-1.1-2.1-2.8-3.6-6.1-5l-1.2-0.5v8.2v8.2l0.7-0.1
			C107.8-12.3,108.7-12.6,109.4-13L109.4-13z M104.6-52.2V-61h-1.5c-0.8,0-2,0-2.4,0.1l-0.9,0.1v8v8l0.7,0.1
			c0.4,0.1,1.3,0.4,2.3,0.7c0.9,0.3,1.7,0.5,1.7,0.5C104.6-43.4,104.6-47.3,104.6-52.2L104.6-52.2z M97.9-53c0-8.2,0.1-7.7-2.1-6.5
			c-1.9,0.9-3.6,2.8-4.1,4.4c-0.9,2.7-0.1,4.9,2.3,7c0.9,0.8,3.4,2.4,3.7,2.4C97.7-45.7,97.9-49.1,97.9-53z"/>
		<g id="text4627-3-2-3">
			<path id="path4651" class="st5" d="M73.1,0.7h2.4l3.7,7.2l3.7-7.2h2.4v11.1h-2v-8l-3.4,6.9h-1.3l-3.4-6.9v8h-2V0.7z"/>
			<path id="path4654" class="st5" d="M96.3,11.8l-0.9-2.4h-5.4L89,11.8h-2.3l4.9-11.1h2.3l4.8,11.1H96.3z M90.6,7.7h4l-2-4.6
				L90.6,7.7z"/>
			<path id="path4656" class="st5" d="M106.9,11.8l-2-3.3c-0.1,0-0.3,0-0.4,0H102v3.3h-2.1V0.7h4.6c1.5,0,2.5,0.4,3.3,1.1
				s1.2,1.6,1.2,2.8c0,0.9-0.1,1.6-0.5,2.3c-0.4,0.7-0.9,1.1-1.6,1.3l2.4,3.7H106.9z M102.1,6.8h2.5c0.8,0,1.5-0.1,1.9-0.5
				c0.4-0.4,0.7-0.9,0.7-1.6s-0.3-1.2-0.7-1.6c-0.4-0.4-1.1-0.5-1.9-0.5h-2.5V6.8z"/>
			<path id="path4659" class="st5" d="M121.3,11.8h-2.5L115.4,7l-1.7,2v2.8h-2.1V0.7h2.1v5.6l5-5.6h2.5l-4.2,4.8L121.3,11.8z"/>
			<path id="path4661" class="st5" d="M122.9,0.7h8.2v2h-6v2.7h5.4v1.9h-5.4v2.8h6.2v1.9H123V0.7H122.9z"/>
			<path id="path4663" class="st5" d="M132.2,0.7h9.1v2h-3.4v9.3h-2.1V2.6h-3.4L132.2,0.7z"/>
			<path id="path4665" class="st5" d="M149.8,3.6c-0.5-0.4-1.2-0.7-1.7-0.8c-0.5-0.1-1.1-0.3-1.6-0.3s-0.9,0.1-1.2,0.3
				c-0.3,0.1-0.4,0.4-0.4,0.8c0,0.3,0.1,0.5,0.3,0.8c0.3,0.3,0.5,0.4,0.8,0.5c0.3,0.1,0.8,0.3,1.3,0.4c0.8,0.3,1.3,0.4,1.9,0.7
				c0.5,0.3,0.9,0.5,1.2,0.9c0.4,0.4,0.5,1.1,0.5,1.7s-0.1,1.3-0.5,1.7c-0.4,0.5-0.9,0.9-1.5,1.2c-0.7,0.3-1.3,0.4-2.3,0.4
				s-1.7-0.1-2.5-0.5c-0.8-0.3-1.6-0.8-2.1-1.3l0.9-1.9c0.5,0.5,1.2,0.9,1.9,1.2c0.7,0.3,1.3,0.4,2,0.4c0.5,0,1.1-0.1,1.5-0.4
				c0.4-0.3,0.5-0.5,0.5-0.9c0-0.3-0.1-0.5-0.3-0.8c-0.3-0.3-0.4-0.4-0.8-0.5s-0.8-0.3-1.3-0.4c-0.8-0.3-1.3-0.4-1.9-0.7
				s-0.9-0.5-1.2-0.9c-0.4-0.4-0.5-1.1-0.5-1.7s0.1-1.2,0.5-1.7c0.4-0.5,0.8-0.9,1.5-1.2c0.7-0.3,1.3-0.4,2.3-0.4
				c0.7,0,1.5,0.1,2.1,0.3c0.7,0.3,1.3,0.5,1.9,0.8L149.8,3.6z"/>
		</g>
	</g>
	<path id="rect5324_1_" class="st1" d="M20.8,10.8h158.8c5.4,0,9.9,4.5,9.9,9.9v158.8c0,5.4-4.5,9.9-9.9,9.9H20.8
		c-5.4,0-9.9-4.5-9.9-9.9V20.8C10.9,15.3,15.3,10.8,20.8,10.8z"/>
	<path id="path5326_1_" inkscape:connector-curvature="0" class="st0" d="M6.5,147.9v31.3c0,11.5,9.3,20.8,20.8,20.8h146
		c11.5,0,20.8-9.3,20.8-20.8v-31.3H6.5z"/>
	<path id="path5347_1_" inkscape:connector-curvature="0" class="st0" d="M71.4,139.9l-0.1-6.1l-4.5-0.8c-4.9-0.8-11.5-2.7-15-4.4
		c-5.8-2.7-11.8-8.2-13.9-12.9c-1.1-2.4-1.3-3.6-1.3-6.6c0-4.5,1.1-7,4.1-9.5c3.2-2.5,6.8-3.7,11.3-3.8c4.5,0,7.3,0.9,10.2,3.3
		c9.7,8,4.4,20.9-8.9,22.3l-3,0.3l1.1,1.3c2.5,2.5,8.4,4.6,15.6,6.1c4.9,0.9,4.5,3.2,4.5-19.2V90.2l-2.5-1.1
		c-1.3-0.5-4.5-1.9-6.8-2.8c-10.9-4.5-18.4-11.3-21.2-18.7c-2.1-5.8-1.6-15.4,1.5-21.6c4.2-8.5,14.1-15.1,26.2-17.4l2.8-0.5v-5.7
		v-5.7h2h2.1v5.6v5.6h4.8h4.9v-5.6v-5.6h2.1h2.1v5.7c0,3.2,0.1,5.7,0.4,5.7c1.6,0,7.2,1.1,10.1,2c12.5,3.7,19.6,10.2,20.4,18
		c0.3,3.4-0.7,6.1-3.2,8.7c-2.9,2.9-4.9,3.7-10.1,3.7c-4,0-4.5-0.1-7-1.3c-3.2-1.7-5.6-4.5-6.4-7.8c-0.5-2.1-0.5-2.7,0.4-5.4
		c1.1-3.2,2.1-4.4,5.7-6.5c1.5-0.9,2.7-1.2,4.8-1.3c1.5,0,2.7-0.1,2.7-0.4c0-1.2-7.7-4.2-12.9-5.2c-1.6-0.3-3.3-0.5-4-0.7l-1.1-0.1
		l0.1,18.2l0.1,18.2l4.8,1.7c10.3,3.7,19.2,8.4,24,12.6c6.6,5.8,8.7,9.7,9.1,17.1c0.5,8.1-1.2,14.1-5.6,20c-3.8,5.4-9.5,9-18.3,11.7
		c-2.9,0.9-7.3,1.7-9.8,2.1l-4.5,0.5v6.1v6.1h-2.1H85v-6v-6h-4.8h-4.9v6v6h-1.9h-1.9L71.4,139.9z M83.3,130H85v-17.6V94.7l-4.4-1.6
		c-2.4-0.9-4.5-1.6-4.9-1.6c-0.3,0-0.5,6.8-0.5,19.2V130l2.1,0.1c1.1,0.1,2.5,0.1,3,0C80.9,130,82.2,130,83.3,130L83.3,130z
		 M94.7,127.5c3.7-1.6,7.8-5.3,9.3-8.2c1.5-3.2,1.5-8.5,0-11.5c-2.1-4.2-5.4-7-12.2-10.2l-2.5-1.1v16.4v16.4l1.3-0.3
		C91.5,128.8,93.2,128,94.7,127.5L94.7,127.5z M85,49.1V31.5h-3c-1.7,0-3.8,0.1-4.9,0.3L75.3,32l0.1,15.9l0.1,15.9l1.2,0.3
		c0.7,0.1,2.8,0.8,4.5,1.5c1.9,0.5,3.4,1.1,3.4,1.2C85,66.8,85,58.8,85,49.1L85,49.1z M71.5,47.5c0-16.4,0.3-15.4-4.1-13.1
		c-3.7,1.9-7.2,5.6-8.1,8.6c-1.7,5.2-0.3,9.8,4.5,14.1c1.7,1.6,6.8,4.8,7.6,4.8C71.4,62,71.5,55.5,71.5,47.5z"/>
	<text transform="matrix(1 0 0 1 57.5781 186.4592)" class="st2 st6 st7">FREI</text>
</g>
</svg>
